M48
; DRILL file {KiCad 9.0.4} date 2026-05-30T17:15:38+0700
; FORMAT={-:-/ absolute / metric / decimal}
; #@! TF.CreationDate,2026-05-30T17:15:38+07:00
; #@! TF.GenerationSoftware,Kicad,Pcbnew,9.0.4
; #@! TF.FileFunction,Plated,1,2,PTH
FMAT,2
METRIC
; #@! TA.AperFunction,Plated,PTH,ViaDrill
T1C0.300
; #@! TA.AperFunction,Plated,PTH,ComponentDrill
T2C0.750
; #@! TA.AperFunction,Plated,PTH,ComponentDrill
T3C0.800
; #@! TA.AperFunction,Plated,PTH,ComponentDrill
T4C0.900
; #@! TA.AperFunction,Plated,PTH,ComponentDrill
T5C1.000
; #@! TA.AperFunction,Plated,PTH,ComponentDrill
T6C1.020
; #@! TA.AperFunction,Plated,PTH,ComponentDrill
T7C1.100
; #@! TA.AperFunction,Plated,PTH,ComponentDrill
T8C1.200
; #@! TA.AperFunction,Plated,PTH,ComponentDrill
T9C1.300
; #@! TA.AperFunction,Plated,PTH,ComponentDrill
T10C1.330
; #@! TA.AperFunction,Plated,PTH,ComponentDrill
T11C1.600
; #@! TA.AperFunction,Plated,PTH,ComponentDrill
T12C1.700
; #@! TA.AperFunction,Plated,PTH,ComponentDrill
T13C1.854
%
G90
G05
T1
X68.175Y-110.38
X72.925Y-71.13
X72.925Y-90.63
X98.175Y-81.88
X125.175Y-73.63
X125.175Y-83.63
X131.425Y-104.63
X137.675Y-97.13
X169.925Y-97.13
X175.675Y-39.13
X175.675Y-41.63
X178.175Y-39.13
X178.175Y-41.63
X180.925Y-88.13
X183.925Y-60.88
X184.675Y-79.13
X185.675Y-119.13
X185.675Y-121.63
X188.175Y-119.13
X188.175Y-121.63
X189.925Y-84.38
X194.425Y-52.13
X207.675Y-79.88
X210.675Y-96.63
X210.675Y-99.13
X213.175Y-96.63
X213.175Y-99.13
X215.675Y-61.63
X215.675Y-64.13
X218.175Y-61.63
X218.175Y-64.13
X240.675Y-136.63
X240.675Y-139.13
X243.175Y-136.63
X243.175Y-139.13
X245.675Y-54.13
X245.675Y-56.63
X248.175Y-54.13
X248.175Y-56.63
T2
X93.315Y-68.36
X93.315Y-69.63
X93.315Y-70.9
X111.815Y-68.36
X111.815Y-69.63
X111.815Y-70.9
T3
X58.022Y-108.13
X58.055Y-88.63
X58.055Y-96.25
X59.365Y-73.55
X59.365Y-83.71
X59.578Y-67.63
X60.595Y-88.63
X60.595Y-96.25
X63.022Y-108.13
X63.135Y-88.63
X63.135Y-96.25
X64.578Y-67.63
X65.175Y-73.55
X65.175Y-83.71
X65.675Y-88.63
X65.675Y-96.25
X79.095Y-73.13
X81.365Y-68.13
X84.675Y-78.05
X84.675Y-88.21
X88.985Y-68.13
X89.255Y-73.13
X90.135Y-78.01
X90.135Y-85.63
X92.675Y-78.01
X92.675Y-85.63
X97.595Y-73.13
X99.865Y-68.13
X102.675Y-78.05
X102.675Y-88.21
X107.485Y-68.13
X107.755Y-73.13
X108.135Y-78.01
X108.135Y-85.63
X110.675Y-78.01
X110.675Y-85.63
X121.425Y-86.13
X123.925Y-86.13
X173.175Y-68.28
X173.175Y-80.98
X180.675Y-68.28
X180.675Y-80.98
X186.675Y-73.63
X186.675Y-76.13
X186.675Y-87.38
X186.675Y-89.88
X254.075Y-87.013
X254.075Y-92.013
T4
X89.9Y-91.63
X92.44Y-91.63
X107.9Y-91.63
X110.44Y-91.63
T5
X60.675Y-100.63
X81.225Y-59.68
X93.225Y-59.68
X99.725Y-59.68
X111.725Y-59.68
X116.175Y-88.355
X116.175Y-90.895
X121.25Y-80.0
X123.79Y-80.0
X126.33Y-80.0
X128.87Y-80.0
X131.41Y-80.0
X133.95Y-80.0
X172.675Y-87.63
X172.675Y-90.17
X177.175Y-86.39
X179.675Y-91.39
X182.175Y-86.39
X189.925Y-40.62
X189.925Y-43.16
X189.925Y-45.7
X189.925Y-48.24
X189.925Y-50.78
X189.925Y-53.32
X189.925Y-55.86
X189.925Y-58.4
X189.925Y-60.94
X189.925Y-63.48
X195.075Y-40.62
X195.075Y-43.16
X195.075Y-45.7
X195.075Y-48.24
X199.575Y-47.13
X199.575Y-49.67
X199.575Y-52.21
X199.575Y-54.75
X199.575Y-57.29
X199.575Y-59.83
X199.575Y-62.37
X199.575Y-64.91
X199.575Y-67.45
X199.575Y-69.99
X199.575Y-72.53
X199.575Y-75.07
X199.575Y-77.61
X199.575Y-80.15
X199.575Y-82.69
X211.595Y-135.73
X214.135Y-135.73
X215.315Y-122.23
X216.675Y-135.73
X217.855Y-122.23
X219.215Y-135.73
X220.395Y-122.23
X221.755Y-135.73
X222.935Y-122.23
X224.295Y-135.73
X225.475Y-122.23
X233.265Y-97.23
X234.275Y-47.13
X234.275Y-49.67
X234.275Y-52.21
X234.275Y-54.75
X234.275Y-57.29
X234.275Y-59.83
X234.275Y-62.37
X234.275Y-64.91
X234.275Y-67.45
X234.275Y-69.99
X234.275Y-72.53
X234.275Y-75.07
X234.275Y-77.61
X234.275Y-80.15
X234.275Y-82.69
X235.805Y-97.23
X238.345Y-97.23
X240.885Y-97.23
X241.0Y-39.25
X243.54Y-39.25
X254.885Y-39.49
X254.885Y-80.13
X254.885Y-99.41
X254.885Y-140.05
X260.265Y-148.81
X262.805Y-148.81
X265.345Y-148.81
X267.885Y-148.81
X272.665Y-39.49
X272.665Y-80.13
X272.665Y-99.41
X272.665Y-140.05
T6
X204.245Y-47.472
X204.245Y-50.012
X204.245Y-52.552
X204.245Y-55.092
X204.245Y-57.633
X204.245Y-60.172
X204.245Y-62.712
X204.245Y-65.252
X204.245Y-67.793
X204.245Y-70.332
X204.245Y-72.873
X204.245Y-75.412
X204.245Y-77.953
X204.245Y-80.492
X204.245Y-83.032
X229.645Y-47.472
X229.645Y-50.012
X229.645Y-52.552
X229.645Y-55.092
X229.645Y-57.633
X229.645Y-60.172
X229.645Y-62.712
X229.645Y-65.252
X229.645Y-67.793
X229.645Y-70.332
X229.645Y-72.873
X229.645Y-75.412
X229.645Y-77.953
X229.645Y-80.492
X229.645Y-83.032
T7
X39.925Y-68.8
X39.925Y-78.96
T8
X126.0Y-64.25
X129.5Y-64.25
T9
X81.175Y-47.43
X87.175Y-61.63
X93.225Y-47.48
X99.675Y-47.43
X105.675Y-61.63
X111.725Y-47.48
T10
X32.045Y-72.252
X32.045Y-74.792
X32.045Y-77.332
T11
X156.103Y-139.996
X156.175Y-65.63
T12
X41.175Y-91.37
X41.175Y-98.13
X41.175Y-105.41
X41.175Y-112.17
T13
X38.395Y-51.63
X47.925Y-51.63
X61.395Y-51.63
X70.925Y-51.63
X146.645Y-51.63
X156.175Y-51.63
T5
G00X262.475Y-91.067
M15
G01X262.475Y-89.067
M16
G05
G00X266.475Y-85.367
M15
G01X264.475Y-85.367
M16
G05
G00X268.475Y-91.067
M15
G01X268.475Y-89.067
M16
G05
M30
