%TF.GenerationSoftware,KiCad,Pcbnew,9.0.4*%
%TF.CreationDate,2026-05-30T17:15:33+07:00*%
%TF.ProjectId,esp32_devkit_v1_battery_cycler,65737033-325f-4646-9576-6b69745f7631,rev?*%
%TF.SameCoordinates,Original*%
%TF.FileFunction,Soldermask,Bot*%
%TF.FilePolarity,Negative*%
%FSLAX46Y46*%
G04 Gerber Fmt 4.6, Leading zero omitted, Abs format (unit mm)*
G04 Created by KiCad (PCBNEW 9.0.4) date 2026-05-30 17:15:33*
%MOMM*%
%LPD*%
G01*
G04 APERTURE LIST*
G04 Aperture macros list*
%AMRoundRect*
0 Rectangle with rounded corners*
0 $1 Rounding radius*
0 $2 $3 $4 $5 $6 $7 $8 $9 X,Y pos of 4 corners*
0 Add a 4 corners polygon primitive as box body*
4,1,4,$2,$3,$4,$5,$6,$7,$8,$9,$2,$3,0*
0 Add four circle primitives for the rounded corners*
1,1,$1+$1,$2,$3*
1,1,$1+$1,$4,$5*
1,1,$1+$1,$6,$7*
1,1,$1+$1,$8,$9*
0 Add four rect primitives between the rounded corners*
20,1,$1+$1,$2,$3,$4,$5,0*
20,1,$1+$1,$4,$5,$6,$7,0*
20,1,$1+$1,$6,$7,$8,$9,0*
20,1,$1+$1,$8,$9,$2,$3,0*%
G04 Aperture macros list end*
%ADD10R,1.700000X1.700000*%
%ADD11C,1.700000*%
%ADD12R,1.500000X1.050000*%
%ADD13O,1.500000X1.050000*%
%ADD14RoundRect,0.102000X1.500000X1.500000X-1.500000X1.500000X-1.500000X-1.500000X1.500000X-1.500000X0*%
%ADD15C,3.204000*%
%ADD16RoundRect,0.250000X-0.550000X-0.550000X0.550000X-0.550000X0.550000X0.550000X-0.550000X0.550000X0*%
%ADD17C,1.600000*%
%ADD18C,3.000000*%
%ADD19C,2.500000*%
%ADD20RoundRect,0.102000X0.997500X-0.997500X0.997500X0.997500X-0.997500X0.997500X-0.997500X-0.997500X0*%
%ADD21C,2.199000*%
%ADD22R,1.800000X1.800000*%
%ADD23C,1.800000*%
%ADD24RoundRect,0.249999X0.850001X-0.850001X0.850001X0.850001X-0.850001X0.850001X-0.850001X-0.850001X0*%
%ADD25C,2.200000*%
%ADD26R,1.560000X1.560000*%
%ADD27C,1.560000*%
%ADD28RoundRect,0.250000X0.550000X-0.550000X0.550000X0.550000X-0.550000X0.550000X-0.550000X-0.550000X0*%
%ADD29RoundRect,0.675000X0.675000X-0.675000X0.675000X0.675000X-0.675000X0.675000X-0.675000X-0.675000X0*%
%ADD30C,2.700000*%
%ADD31RoundRect,0.102000X-1.000000X-1.000000X1.000000X-1.000000X1.000000X1.000000X-1.000000X1.000000X0*%
%ADD32C,2.204000*%
%ADD33RoundRect,0.250000X0.550000X0.550000X-0.550000X0.550000X-0.550000X-0.550000X0.550000X-0.550000X0*%
%ADD34RoundRect,0.249999X-1.250001X1.250001X-1.250001X-1.250001X1.250001X-1.250001X1.250001X1.250001X0*%
%ADD35C,2.400000*%
%ADD36RoundRect,0.250001X0.949999X0.949999X-0.949999X0.949999X-0.949999X-0.949999X0.949999X-0.949999X0*%
%ADD37R,3.500000X3.500000*%
%ADD38RoundRect,0.750000X0.750000X1.000000X-0.750000X1.000000X-0.750000X-1.000000X0.750000X-1.000000X0*%
%ADD39RoundRect,0.875000X0.875000X0.875000X-0.875000X0.875000X-0.875000X-0.875000X0.875000X-0.875000X0*%
%ADD40R,2.540000X2.540000*%
%ADD41C,2.540000*%
G04 APERTURE END LIST*
D10*
%TO.C,J9*%
X243540000Y-39250000D03*
D11*
X241000000Y-39250000D03*
%TD*%
D10*
%TO.C,J7*%
X60675000Y-100630000D03*
%TD*%
D12*
%TO.C,Q2*%
X93315000Y-68360000D03*
D13*
X93315000Y-69630000D03*
X93315000Y-70900000D03*
%TD*%
D14*
%TO.C,J13*%
X47925000Y-51630000D03*
D15*
X38395000Y-51630000D03*
%TD*%
D16*
%TO.C,C3*%
X58022349Y-108130000D03*
D17*
X63022349Y-108130000D03*
%TD*%
D12*
%TO.C,Q1*%
X111815000Y-68360000D03*
D13*
X111815000Y-69630000D03*
X111815000Y-70900000D03*
%TD*%
D18*
%TO.C,K2*%
X87175000Y-61630000D03*
D19*
X93225000Y-59680000D03*
D18*
X93225000Y-47480000D03*
X81175000Y-47430000D03*
D19*
X81225000Y-59680000D03*
%TD*%
D17*
%TO.C,R11*%
X59365000Y-73550000D03*
X59365000Y-83710000D03*
%TD*%
D20*
%TO.C,Q3*%
X32045000Y-77332500D03*
D21*
X32045000Y-74792500D03*
X32045000Y-72252500D03*
%TD*%
D10*
%TO.C,J14*%
X195075000Y-48240000D03*
D11*
X195075000Y-45700000D03*
X195075000Y-43160000D03*
X195075000Y-40620000D03*
%TD*%
D22*
%TO.C,D7*%
X89900000Y-91630000D03*
D23*
X92440000Y-91630000D03*
%TD*%
D10*
%TO.C,J2*%
X234275000Y-82690000D03*
D11*
X234275000Y-80150000D03*
X234275000Y-77610000D03*
X234275000Y-75070000D03*
X234275000Y-72530000D03*
X234275000Y-69990000D03*
X234275000Y-67450000D03*
X234275000Y-64910000D03*
X234275000Y-62370000D03*
X234275000Y-59830000D03*
X234275000Y-57290000D03*
X234275000Y-54750000D03*
X234275000Y-52210000D03*
X234275000Y-49670000D03*
X234275000Y-47130000D03*
%TD*%
D10*
%TO.C,J6*%
X116175000Y-88355000D03*
D11*
X116175000Y-90895000D03*
%TD*%
D16*
%TO.C,D9*%
X99865000Y-68130000D03*
D17*
X107485000Y-68130000D03*
%TD*%
%TO.C,R10*%
X65175000Y-83710000D03*
X65175000Y-73550000D03*
%TD*%
%TO.C,R5*%
X84675000Y-88210000D03*
X84675000Y-78050000D03*
%TD*%
D24*
%TO.C,D10*%
X39925000Y-78960000D03*
D25*
X39925000Y-68800000D03*
%TD*%
D10*
%TO.C,J5*%
X267885000Y-148810000D03*
D11*
X265345000Y-148810000D03*
X262805000Y-148810000D03*
X260265000Y-148810000D03*
%TD*%
D10*
%TO.C,J11*%
X224295000Y-135730000D03*
D11*
X221755000Y-135730000D03*
X219215000Y-135730000D03*
X216675000Y-135730000D03*
X214135000Y-135730000D03*
X211595000Y-135730000D03*
%TD*%
D10*
%TO.C,J10*%
X240885000Y-97230000D03*
D11*
X238345000Y-97230000D03*
X235805000Y-97230000D03*
X233265000Y-97230000D03*
%TD*%
D17*
%TO.C,R2*%
X180675000Y-68280000D03*
X180675000Y-80980000D03*
%TD*%
D16*
%TO.C,D8*%
X81365000Y-68130000D03*
D17*
X88985000Y-68130000D03*
%TD*%
%TO.C,C5*%
X123925000Y-86130000D03*
X121425000Y-86130000D03*
%TD*%
D26*
%TO.C,RV1*%
X177175000Y-86390000D03*
D27*
X179675000Y-91390000D03*
X182175000Y-86390000D03*
%TD*%
D10*
%TO.C,J15*%
X225475000Y-122230000D03*
D11*
X222935000Y-122230000D03*
X220395000Y-122230000D03*
X217855000Y-122230000D03*
X215315000Y-122230000D03*
%TD*%
D14*
%TO.C,J8*%
X156175000Y-51630000D03*
D15*
X146645000Y-51630000D03*
%TD*%
D28*
%TO.C,U3*%
X108135000Y-85630000D03*
D17*
X110675000Y-85630000D03*
X110675000Y-78010000D03*
X108135000Y-78010000D03*
%TD*%
D18*
%TO.C,K1*%
X105675000Y-61630000D03*
D19*
X111725000Y-59680000D03*
D18*
X111725000Y-47480000D03*
X99675000Y-47430000D03*
D19*
X99725000Y-59680000D03*
%TD*%
D28*
%TO.C,C2*%
X254075000Y-92012651D03*
D17*
X254075000Y-87012651D03*
%TD*%
%TO.C,R1*%
X173175000Y-80980000D03*
X173175000Y-68280000D03*
%TD*%
D29*
%TO.C,F1*%
X41175000Y-112170000D03*
X41175000Y-105410000D03*
D30*
X41175000Y-98130000D03*
X41175000Y-91370000D03*
%TD*%
D17*
%TO.C,C6*%
X186675000Y-73630000D03*
X186675000Y-76130000D03*
%TD*%
D18*
%TO.C,U1*%
X204665000Y-39512500D03*
X204665000Y-86462500D03*
X229175000Y-39512500D03*
X229175000Y-86462500D03*
D31*
X204245000Y-47472500D03*
D32*
X204245000Y-50012500D03*
X204245000Y-52552500D03*
X204245000Y-55092500D03*
X204245000Y-57632500D03*
X204245000Y-60172500D03*
X204245000Y-62712500D03*
X204245000Y-65252500D03*
X204245000Y-67792500D03*
X204245000Y-70332500D03*
X204245000Y-72872500D03*
X204245000Y-75412500D03*
X204245000Y-77952500D03*
X204245000Y-80492500D03*
X204245000Y-83032500D03*
X229645000Y-83032500D03*
X229645000Y-80492500D03*
X229645000Y-77952500D03*
X229645000Y-75412500D03*
X229645000Y-72872500D03*
X229645000Y-70332500D03*
X229645000Y-67792500D03*
X229645000Y-65252500D03*
X229645000Y-62712500D03*
X229645000Y-60172500D03*
X229645000Y-57632500D03*
X229645000Y-55092500D03*
X229645000Y-52552500D03*
X229645000Y-50012500D03*
X229645000Y-47472500D03*
%TD*%
D33*
%TO.C,C4*%
X64577651Y-67630000D03*
D17*
X59577651Y-67630000D03*
%TD*%
D10*
%TO.C,ADS1*%
X189925000Y-63480000D03*
D11*
X189925000Y-60940000D03*
X189925000Y-58400000D03*
X189925000Y-55860000D03*
X189925000Y-53320000D03*
X189925000Y-50780000D03*
X189925000Y-48240000D03*
X189925000Y-45700000D03*
X189925000Y-43160000D03*
X189925000Y-40620000D03*
%TD*%
D34*
%TO.C,BT1*%
X156175000Y-65630000D03*
D18*
X156103400Y-139995800D03*
%TD*%
D17*
%TO.C,R3*%
X102675000Y-88210000D03*
X102675000Y-78050000D03*
%TD*%
D10*
%TO.C,INA1*%
X121250000Y-80000000D03*
D11*
X123790000Y-80000000D03*
X126330000Y-80000000D03*
X128870000Y-80000000D03*
X131410000Y-80000000D03*
X133950000Y-80000000D03*
D35*
X126000000Y-64250000D03*
D36*
X129500000Y-64250000D03*
%TD*%
D14*
%TO.C,J12*%
X70925000Y-51630000D03*
D15*
X61395000Y-51630000D03*
%TD*%
D17*
%TO.C,R6*%
X79095000Y-73130000D03*
X89255000Y-73130000D03*
%TD*%
D22*
%TO.C,D6*%
X107900000Y-91630000D03*
D23*
X110440000Y-91630000D03*
%TD*%
D37*
%TO.C,J4*%
X262475000Y-90067500D03*
D38*
X268475000Y-90067500D03*
D39*
X265475000Y-85367500D03*
%TD*%
D17*
%TO.C,R4*%
X97595000Y-73130000D03*
X107755000Y-73130000D03*
%TD*%
D28*
%TO.C,U4*%
X90135000Y-85630000D03*
D17*
X92675000Y-85630000D03*
X92675000Y-78010000D03*
X90135000Y-78010000D03*
%TD*%
D10*
%TO.C,J1*%
X172675000Y-90170000D03*
D11*
X172675000Y-87630000D03*
%TD*%
D40*
%TO.C,M1*%
X254885000Y-80130000D03*
D41*
X272665000Y-80130000D03*
X254885000Y-39490000D03*
X272665000Y-39490000D03*
%TD*%
D10*
%TO.C,J3*%
X199575000Y-82690000D03*
D11*
X199575000Y-80150000D03*
X199575000Y-77610000D03*
X199575000Y-75070000D03*
X199575000Y-72530000D03*
X199575000Y-69990000D03*
X199575000Y-67450000D03*
X199575000Y-64910000D03*
X199575000Y-62370000D03*
X199575000Y-59830000D03*
X199575000Y-57290000D03*
X199575000Y-54750000D03*
X199575000Y-52210000D03*
X199575000Y-49670000D03*
X199575000Y-47130000D03*
%TD*%
D28*
%TO.C,U2*%
X58055000Y-96250000D03*
D17*
X60595000Y-96250000D03*
X63135000Y-96250000D03*
X65675000Y-96250000D03*
X65675000Y-88630000D03*
X63135000Y-88630000D03*
X60595000Y-88630000D03*
X58055000Y-88630000D03*
%TD*%
%TO.C,C1*%
X186675000Y-87380000D03*
X186675000Y-89880000D03*
%TD*%
D40*
%TO.C,M2*%
X272665000Y-99410000D03*
D41*
X254885000Y-99410000D03*
X272665000Y-140050000D03*
X254885000Y-140050000D03*
%TD*%
G36*
X38398033Y-50630149D02*
G01*
X38483884Y-50634366D01*
X38501992Y-50636600D01*
X38673306Y-50670677D01*
X38696567Y-50677733D01*
X38855114Y-50743405D01*
X38876552Y-50754864D01*
X39019239Y-50850205D01*
X39038029Y-50865626D01*
X39159373Y-50986970D01*
X39174794Y-51005760D01*
X39270135Y-51148447D01*
X39281594Y-51169885D01*
X39347266Y-51328432D01*
X39354322Y-51351693D01*
X39387802Y-51520003D01*
X39390185Y-51544195D01*
X39390185Y-51715804D01*
X39387802Y-51739996D01*
X39354322Y-51908306D01*
X39347266Y-51931567D01*
X39281594Y-52090114D01*
X39270135Y-52111552D01*
X39174794Y-52254239D01*
X39159373Y-52273029D01*
X39038029Y-52394373D01*
X39019239Y-52409794D01*
X38876552Y-52505135D01*
X38855114Y-52516594D01*
X38696567Y-52582266D01*
X38673306Y-52589322D01*
X38501992Y-52623399D01*
X38483885Y-52625633D01*
X38398034Y-52629851D01*
X38391949Y-52630000D01*
X31339213Y-52630000D01*
X23425000Y-60544213D01*
X23425000Y-92965786D01*
X41879952Y-111420738D01*
X41884149Y-111425146D01*
X41901122Y-111443873D01*
X41919853Y-111460850D01*
X41924260Y-111465046D01*
X42381052Y-111921838D01*
X42414537Y-111983161D01*
X42416774Y-111997364D01*
X42419587Y-112025922D01*
X42420184Y-112038077D01*
X42420184Y-112221922D01*
X42419587Y-112234078D01*
X42415976Y-112270734D01*
X42414190Y-112282769D01*
X42378325Y-112463077D01*
X42375369Y-112474881D01*
X42364678Y-112510125D01*
X42360578Y-112521583D01*
X42290221Y-112691440D01*
X42285018Y-112702441D01*
X42267661Y-112734913D01*
X42261405Y-112745350D01*
X42159261Y-112898219D01*
X42152014Y-112907990D01*
X42128648Y-112936463D01*
X42120474Y-112945482D01*
X41990482Y-113075474D01*
X41981463Y-113083648D01*
X41952990Y-113107014D01*
X41943219Y-113114261D01*
X41790350Y-113216405D01*
X41779913Y-113222661D01*
X41747441Y-113240018D01*
X41736440Y-113245221D01*
X41566583Y-113315578D01*
X41555125Y-113319678D01*
X41519881Y-113330369D01*
X41508077Y-113333325D01*
X41327769Y-113369190D01*
X41315735Y-113370976D01*
X41279080Y-113374587D01*
X41266923Y-113375184D01*
X41083077Y-113375184D01*
X41070922Y-113374587D01*
X41042364Y-113371774D01*
X40977577Y-113345612D01*
X40966838Y-113336052D01*
X40510046Y-112879260D01*
X40505850Y-112874853D01*
X40488873Y-112856122D01*
X40470146Y-112839149D01*
X40465738Y-112834952D01*
X21720046Y-94089260D01*
X21715850Y-94084853D01*
X21658134Y-94021174D01*
X21646908Y-94006790D01*
X21574226Y-93898012D01*
X21574226Y-93898011D01*
X21549866Y-93861555D01*
X21538406Y-93840116D01*
X21472733Y-93681567D01*
X21465677Y-93658306D01*
X21431600Y-93486992D01*
X21429366Y-93468884D01*
X21425149Y-93383033D01*
X21425000Y-93376949D01*
X21425000Y-60133050D01*
X21425149Y-60126966D01*
X21429366Y-60041115D01*
X21431600Y-60023007D01*
X21465677Y-59851693D01*
X21472733Y-59828432D01*
X21538406Y-59669883D01*
X21549865Y-59648444D01*
X21574226Y-59611986D01*
X21646908Y-59503211D01*
X21658132Y-59488828D01*
X21715849Y-59425147D01*
X21720046Y-59420739D01*
X30215737Y-50925048D01*
X30220145Y-50920850D01*
X30283828Y-50863132D01*
X30298210Y-50851909D01*
X30372104Y-50802534D01*
X30443446Y-50754864D01*
X30464885Y-50743405D01*
X30623432Y-50677733D01*
X30646693Y-50670677D01*
X30818007Y-50636600D01*
X30836116Y-50634366D01*
X30921968Y-50630149D01*
X30928051Y-50630000D01*
X38391949Y-50630000D01*
X38398033Y-50630149D01*
G37*
G36*
X40697656Y-67819685D02*
G01*
X40709281Y-67828146D01*
X40731463Y-67846350D01*
X40740480Y-67854523D01*
X40870476Y-67984519D01*
X40878649Y-67993537D01*
X40902013Y-68022007D01*
X40909261Y-68031779D01*
X41011402Y-68184643D01*
X41017658Y-68195081D01*
X41035019Y-68227561D01*
X41040222Y-68238561D01*
X41110578Y-68408415D01*
X41114678Y-68419873D01*
X41125368Y-68455114D01*
X41128324Y-68466918D01*
X41164191Y-68647232D01*
X41165977Y-68659266D01*
X41169588Y-68695919D01*
X41170185Y-68708076D01*
X41170185Y-68891923D01*
X41169588Y-68904080D01*
X41165977Y-68940733D01*
X41164191Y-68952767D01*
X41128324Y-69133081D01*
X41125368Y-69144885D01*
X41114678Y-69180126D01*
X41110578Y-69191584D01*
X41040222Y-69361438D01*
X41035019Y-69372438D01*
X41017658Y-69404918D01*
X41011402Y-69415356D01*
X40909261Y-69568220D01*
X40902013Y-69577992D01*
X40878649Y-69606462D01*
X40870476Y-69615480D01*
X40740480Y-69745476D01*
X40731466Y-69753647D01*
X40709284Y-69771852D01*
X40644974Y-69799166D01*
X40630617Y-69800000D01*
X34169213Y-69800000D01*
X33045000Y-70924213D01*
X33045000Y-72249449D01*
X33044851Y-72255534D01*
X33040633Y-72341385D01*
X33038399Y-72359492D01*
X33004322Y-72530806D01*
X32997266Y-72554067D01*
X32931594Y-72712614D01*
X32920135Y-72734052D01*
X32824794Y-72876739D01*
X32809373Y-72895529D01*
X32688029Y-73016873D01*
X32669239Y-73032294D01*
X32526552Y-73127635D01*
X32505114Y-73139094D01*
X32346567Y-73204766D01*
X32323306Y-73211822D01*
X32154997Y-73245302D01*
X32130805Y-73247685D01*
X31959195Y-73247685D01*
X31935003Y-73245302D01*
X31766693Y-73211822D01*
X31743432Y-73204766D01*
X31584885Y-73139094D01*
X31563447Y-73127635D01*
X31420760Y-73032294D01*
X31401970Y-73016873D01*
X31280626Y-72895529D01*
X31265205Y-72876739D01*
X31169864Y-72734052D01*
X31158405Y-72712614D01*
X31092733Y-72554067D01*
X31085677Y-72530806D01*
X31051600Y-72359492D01*
X31049366Y-72341384D01*
X31045149Y-72255533D01*
X31045000Y-72249449D01*
X31045000Y-70513050D01*
X31045149Y-70506966D01*
X31049366Y-70421115D01*
X31051600Y-70403007D01*
X31085677Y-70231693D01*
X31092733Y-70208432D01*
X31158406Y-70049883D01*
X31169865Y-70028444D01*
X31194226Y-69991986D01*
X31266908Y-69883211D01*
X31278132Y-69868828D01*
X31335849Y-69805147D01*
X31340046Y-69800739D01*
X33045737Y-68095048D01*
X33050145Y-68090850D01*
X33113828Y-68033132D01*
X33128210Y-68021909D01*
X33202104Y-67972534D01*
X33273446Y-67924864D01*
X33294885Y-67913405D01*
X33453432Y-67847733D01*
X33476693Y-67840677D01*
X33648007Y-67806600D01*
X33666116Y-67804366D01*
X33751968Y-67800149D01*
X33758051Y-67800000D01*
X40630617Y-67800000D01*
X40697656Y-67819685D01*
G37*
G36*
X153178033Y-44630149D02*
G01*
X153263884Y-44634366D01*
X153281992Y-44636600D01*
X153453306Y-44670677D01*
X153476567Y-44677733D01*
X153635116Y-44743406D01*
X153656555Y-44754866D01*
X153693011Y-44779226D01*
X153693012Y-44779226D01*
X153801790Y-44851908D01*
X153816174Y-44863134D01*
X153879853Y-44920850D01*
X153884260Y-44925046D01*
X156879951Y-47920737D01*
X156884148Y-47925145D01*
X156941866Y-47988827D01*
X156953091Y-48003210D01*
X157013297Y-48093316D01*
X157050133Y-48148445D01*
X157061592Y-48169882D01*
X157127266Y-48328429D01*
X157134322Y-48351692D01*
X157148950Y-48425232D01*
X157168399Y-48523008D01*
X157170633Y-48541114D01*
X157174851Y-48626965D01*
X157175000Y-48633050D01*
X157175000Y-52335616D01*
X157155315Y-52402655D01*
X157146854Y-52414280D01*
X157128649Y-52436463D01*
X157120476Y-52445480D01*
X156990480Y-52575476D01*
X156981462Y-52583649D01*
X156952992Y-52607013D01*
X156943220Y-52614261D01*
X156790356Y-52716402D01*
X156779918Y-52722658D01*
X156747438Y-52740019D01*
X156736438Y-52745222D01*
X156566584Y-52815578D01*
X156555126Y-52819678D01*
X156519885Y-52830368D01*
X156508081Y-52833324D01*
X156327767Y-52869191D01*
X156315733Y-52870977D01*
X156279080Y-52874588D01*
X156266923Y-52875185D01*
X156083077Y-52875185D01*
X156070920Y-52874588D01*
X156034266Y-52870977D01*
X156022232Y-52869191D01*
X155841918Y-52833324D01*
X155830114Y-52830368D01*
X155794873Y-52819678D01*
X155783415Y-52815578D01*
X155613561Y-52745222D01*
X155602561Y-52740019D01*
X155570081Y-52722658D01*
X155559643Y-52716402D01*
X155406779Y-52614261D01*
X155397007Y-52607013D01*
X155368537Y-52583649D01*
X155359519Y-52575476D01*
X155229523Y-52445480D01*
X155221348Y-52436461D01*
X155203144Y-52414278D01*
X155175833Y-52349967D01*
X155175000Y-52335616D01*
X155175000Y-49044214D01*
X152760786Y-46630000D01*
X142089213Y-46630000D01*
X138675000Y-50044213D01*
X138675000Y-56071949D01*
X138674851Y-56078034D01*
X138670633Y-56163885D01*
X138668399Y-56181992D01*
X138634322Y-56353306D01*
X138627266Y-56376567D01*
X138561594Y-56535114D01*
X138550135Y-56556553D01*
X138513297Y-56611684D01*
X138453093Y-56701787D01*
X138441868Y-56716170D01*
X138384148Y-56779854D01*
X138379951Y-56784262D01*
X130209260Y-64954953D01*
X130204853Y-64959149D01*
X130141174Y-65016865D01*
X130126790Y-65028091D01*
X129981549Y-65125136D01*
X129960112Y-65136594D01*
X129801565Y-65202267D01*
X129778303Y-65209323D01*
X129609997Y-65242801D01*
X129585806Y-65245184D01*
X129414194Y-65245184D01*
X129390003Y-65242801D01*
X129221696Y-65209323D01*
X129198434Y-65202267D01*
X129039887Y-65136594D01*
X129018450Y-65125136D01*
X128875758Y-65029794D01*
X128856967Y-65014372D01*
X128735627Y-64893032D01*
X128720205Y-64874241D01*
X128624863Y-64731549D01*
X128613405Y-64710112D01*
X128547732Y-64551565D01*
X128540675Y-64528302D01*
X128507198Y-64359996D01*
X128504816Y-64335806D01*
X128504816Y-64164193D01*
X128507198Y-64140003D01*
X128540675Y-63971697D01*
X128547732Y-63948434D01*
X128613405Y-63789887D01*
X128624863Y-63768450D01*
X128721908Y-63623209D01*
X128733134Y-63608825D01*
X128790850Y-63545146D01*
X128795046Y-63540739D01*
X136675000Y-55660785D01*
X136675000Y-49633050D01*
X136675149Y-49626966D01*
X136679366Y-49541115D01*
X136681600Y-49523007D01*
X136715677Y-49351693D01*
X136722733Y-49328432D01*
X136788405Y-49169885D01*
X136799865Y-49148446D01*
X136831303Y-49101396D01*
X136896908Y-49003209D01*
X136908134Y-48988825D01*
X136965850Y-48925146D01*
X136970046Y-48920739D01*
X140965737Y-44925048D01*
X140970145Y-44920850D01*
X141033828Y-44863132D01*
X141048210Y-44851909D01*
X141122104Y-44802534D01*
X141193446Y-44754864D01*
X141214885Y-44743405D01*
X141373432Y-44677733D01*
X141396693Y-44670677D01*
X141568007Y-44636600D01*
X141586116Y-44634366D01*
X141671968Y-44630149D01*
X141678051Y-44630000D01*
X153171949Y-44630000D01*
X153178033Y-44630149D01*
G37*
G36*
X111834996Y-46487198D02*
G01*
X112003302Y-46520675D01*
X112026565Y-46527732D01*
X112185113Y-46593405D01*
X112206551Y-46604864D01*
X112349239Y-46700205D01*
X112368029Y-46715626D01*
X112489373Y-46836970D01*
X112504794Y-46855760D01*
X112600135Y-46998448D01*
X112611594Y-47019886D01*
X112677267Y-47178434D01*
X112684323Y-47201696D01*
X112717801Y-47370002D01*
X112720184Y-47394193D01*
X112720184Y-47565806D01*
X112717801Y-47589997D01*
X112684323Y-47758303D01*
X112677267Y-47781565D01*
X112611593Y-47940116D01*
X112600134Y-47961553D01*
X112503093Y-48106786D01*
X112491869Y-48121170D01*
X112434148Y-48184855D01*
X112429951Y-48189262D01*
X104534260Y-56084953D01*
X104529853Y-56089149D01*
X104466174Y-56146865D01*
X104451790Y-56158091D01*
X104343011Y-56230774D01*
X104306552Y-56255135D01*
X104285114Y-56266594D01*
X104126567Y-56332266D01*
X104103306Y-56339322D01*
X103931992Y-56373399D01*
X103913885Y-56375633D01*
X103828034Y-56379851D01*
X103821949Y-56380000D01*
X91089212Y-56380000D01*
X88175000Y-59294212D01*
X88175000Y-61626949D01*
X88174851Y-61633034D01*
X88170633Y-61718885D01*
X88168399Y-61736992D01*
X88134322Y-61908306D01*
X88127266Y-61931567D01*
X88061594Y-62090114D01*
X88050135Y-62111552D01*
X87954794Y-62254239D01*
X87939373Y-62273029D01*
X87818029Y-62394373D01*
X87799239Y-62409794D01*
X87656552Y-62505135D01*
X87635114Y-62516594D01*
X87476567Y-62582266D01*
X87453306Y-62589322D01*
X87284997Y-62622802D01*
X87260805Y-62625185D01*
X87089195Y-62625185D01*
X87065003Y-62622802D01*
X86896693Y-62589322D01*
X86873432Y-62582266D01*
X86714885Y-62516594D01*
X86693447Y-62505135D01*
X86550760Y-62409794D01*
X86531970Y-62394373D01*
X86410626Y-62273029D01*
X86395205Y-62254239D01*
X86299864Y-62111552D01*
X86288405Y-62090114D01*
X86222733Y-61931567D01*
X86215677Y-61908306D01*
X86181600Y-61736992D01*
X86179366Y-61718884D01*
X86175149Y-61633033D01*
X86175000Y-61626949D01*
X86175000Y-58883050D01*
X86175149Y-58876966D01*
X86179366Y-58791115D01*
X86181600Y-58773007D01*
X86215677Y-58601693D01*
X86222733Y-58578432D01*
X86288406Y-58419883D01*
X86299865Y-58398444D01*
X86324226Y-58361986D01*
X86396908Y-58253211D01*
X86408132Y-58238828D01*
X86465849Y-58175147D01*
X86470046Y-58170739D01*
X89965739Y-54675047D01*
X89970147Y-54670850D01*
X90033828Y-54613133D01*
X90048210Y-54601909D01*
X90193447Y-54504864D01*
X90214885Y-54493405D01*
X90373432Y-54427733D01*
X90396693Y-54420677D01*
X90568007Y-54386600D01*
X90586116Y-54384366D01*
X90671968Y-54380149D01*
X90678051Y-54380000D01*
X103410786Y-54380000D01*
X103410786Y-54379999D01*
X111015737Y-46775048D01*
X111020144Y-46770851D01*
X111083829Y-46713130D01*
X111098213Y-46701906D01*
X111243446Y-46604865D01*
X111264883Y-46593406D01*
X111423434Y-46527732D01*
X111446697Y-46520675D01*
X111615004Y-46487198D01*
X111639194Y-46484816D01*
X111810806Y-46484816D01*
X111834996Y-46487198D01*
G37*
G36*
X105784996Y-60637198D02*
G01*
X105953302Y-60670675D01*
X105976565Y-60677732D01*
X106135112Y-60743405D01*
X106156549Y-60754863D01*
X106301790Y-60851908D01*
X106316174Y-60863134D01*
X106379853Y-60920850D01*
X106384260Y-60925046D01*
X108709212Y-63249999D01*
X108709213Y-63250000D01*
X125996949Y-63250000D01*
X126003033Y-63250149D01*
X126088884Y-63254366D01*
X126106992Y-63256600D01*
X126278306Y-63290677D01*
X126301567Y-63297733D01*
X126460114Y-63363405D01*
X126481552Y-63374864D01*
X126624239Y-63470205D01*
X126643029Y-63485626D01*
X126764373Y-63606970D01*
X126779794Y-63625760D01*
X126875135Y-63768447D01*
X126886594Y-63789885D01*
X126952266Y-63948432D01*
X126959322Y-63971693D01*
X126992802Y-64140003D01*
X126995185Y-64164195D01*
X126995185Y-64335804D01*
X126992802Y-64359996D01*
X126959322Y-64528306D01*
X126952266Y-64551567D01*
X126886594Y-64710114D01*
X126875135Y-64731552D01*
X126779794Y-64874239D01*
X126764373Y-64893029D01*
X126643029Y-65014373D01*
X126624239Y-65029794D01*
X126481552Y-65125135D01*
X126460114Y-65136594D01*
X126301567Y-65202266D01*
X126278306Y-65209322D01*
X126106992Y-65243399D01*
X126088885Y-65245633D01*
X126003034Y-65249851D01*
X125996949Y-65250000D01*
X108298051Y-65250000D01*
X108291966Y-65249851D01*
X108206112Y-65245633D01*
X108188006Y-65243399D01*
X108016696Y-65209324D01*
X107993434Y-65202268D01*
X107834886Y-65136595D01*
X107813448Y-65125136D01*
X107668211Y-65028091D01*
X107653829Y-65016867D01*
X107590148Y-64959150D01*
X107585740Y-64954953D01*
X104970046Y-62339260D01*
X104965850Y-62334853D01*
X104908134Y-62271174D01*
X104896908Y-62256790D01*
X104799863Y-62111549D01*
X104788405Y-62090112D01*
X104722732Y-61931565D01*
X104715675Y-61908302D01*
X104682198Y-61739996D01*
X104679816Y-61715806D01*
X104679816Y-61544193D01*
X104682198Y-61520003D01*
X104715675Y-61351697D01*
X104722732Y-61328434D01*
X104788405Y-61169887D01*
X104799863Y-61148450D01*
X104895205Y-61005758D01*
X104910627Y-60986967D01*
X105031967Y-60865627D01*
X105050758Y-60850205D01*
X105193450Y-60754863D01*
X105214887Y-60743405D01*
X105373434Y-60677732D01*
X105396697Y-60670675D01*
X105565004Y-60637198D01*
X105589194Y-60634816D01*
X105760806Y-60634816D01*
X105784996Y-60637198D01*
G37*
G36*
X77128033Y-42380149D02*
G01*
X77213884Y-42384366D01*
X77231992Y-42386600D01*
X77403306Y-42420677D01*
X77426567Y-42427733D01*
X77585116Y-42493406D01*
X77606555Y-42504866D01*
X77643011Y-42529226D01*
X77643012Y-42529226D01*
X77751790Y-42601908D01*
X77766174Y-42613134D01*
X77829853Y-42670850D01*
X77834260Y-42675046D01*
X81879953Y-46720739D01*
X81884149Y-46725146D01*
X81941865Y-46788825D01*
X81953091Y-46803209D01*
X82050136Y-46948450D01*
X82061594Y-46969887D01*
X82127267Y-47128434D01*
X82134323Y-47151696D01*
X82167801Y-47320002D01*
X82170184Y-47344193D01*
X82170184Y-47515806D01*
X82167801Y-47539997D01*
X82134323Y-47708303D01*
X82127267Y-47731565D01*
X82061594Y-47890112D01*
X82050136Y-47911549D01*
X81954794Y-48054241D01*
X81939372Y-48073032D01*
X81818032Y-48194372D01*
X81799241Y-48209794D01*
X81656549Y-48305136D01*
X81635112Y-48316594D01*
X81476565Y-48382267D01*
X81453303Y-48389323D01*
X81284997Y-48422801D01*
X81260806Y-48425184D01*
X81089194Y-48425184D01*
X81065003Y-48422801D01*
X80896696Y-48389323D01*
X80873434Y-48382267D01*
X80714887Y-48316594D01*
X80693450Y-48305136D01*
X80548209Y-48208091D01*
X80533825Y-48196865D01*
X80470146Y-48139149D01*
X80465739Y-48134953D01*
X76710786Y-44380000D01*
X56589213Y-44380000D01*
X48634302Y-52334911D01*
X48634260Y-52334951D01*
X36134260Y-64834953D01*
X36129853Y-64839149D01*
X36066174Y-64896865D01*
X36051790Y-64908091D01*
X35943011Y-64980774D01*
X35906552Y-65005135D01*
X35885114Y-65016594D01*
X35726567Y-65082266D01*
X35703306Y-65089322D01*
X35531992Y-65123399D01*
X35513885Y-65125633D01*
X35428034Y-65129851D01*
X35421949Y-65130000D01*
X30589213Y-65130000D01*
X28675000Y-67044213D01*
X28675000Y-73215786D01*
X29251714Y-73792500D01*
X32750617Y-73792500D01*
X32817656Y-73812185D01*
X32829281Y-73820646D01*
X32851463Y-73838850D01*
X32860480Y-73847023D01*
X32990476Y-73977019D01*
X32998649Y-73986037D01*
X33022013Y-74014507D01*
X33029261Y-74024279D01*
X33131402Y-74177143D01*
X33137658Y-74187581D01*
X33155019Y-74220061D01*
X33160222Y-74231061D01*
X33230578Y-74400915D01*
X33234678Y-74412373D01*
X33245368Y-74447614D01*
X33248324Y-74459418D01*
X33284191Y-74639732D01*
X33285977Y-74651766D01*
X33289588Y-74688419D01*
X33290185Y-74700576D01*
X33290185Y-74884423D01*
X33289588Y-74896580D01*
X33285977Y-74933233D01*
X33284191Y-74945267D01*
X33248324Y-75125581D01*
X33245368Y-75137385D01*
X33234678Y-75172626D01*
X33230578Y-75184084D01*
X33160222Y-75353938D01*
X33155019Y-75364938D01*
X33137658Y-75397418D01*
X33131402Y-75407856D01*
X33029261Y-75560720D01*
X33022013Y-75570492D01*
X32998649Y-75598962D01*
X32990476Y-75607980D01*
X32860480Y-75737976D01*
X32851466Y-75746147D01*
X32829284Y-75764352D01*
X32764974Y-75791666D01*
X32750617Y-75792500D01*
X28840551Y-75792500D01*
X28834466Y-75792351D01*
X28748614Y-75788133D01*
X28730507Y-75785899D01*
X28559193Y-75751822D01*
X28535932Y-75744766D01*
X28377386Y-75679094D01*
X28355948Y-75667635D01*
X28284605Y-75619965D01*
X28284605Y-75619964D01*
X28210709Y-75570589D01*
X28196326Y-75559365D01*
X28132645Y-75501648D01*
X28128237Y-75497451D01*
X26970046Y-74339260D01*
X26965850Y-74334853D01*
X26908134Y-74271174D01*
X26896908Y-74256790D01*
X26824226Y-74148012D01*
X26824226Y-74148011D01*
X26799866Y-74111555D01*
X26788406Y-74090116D01*
X26722733Y-73931567D01*
X26715677Y-73908306D01*
X26681600Y-73736992D01*
X26679366Y-73718884D01*
X26675149Y-73633033D01*
X26675000Y-73626949D01*
X26675000Y-66633050D01*
X26675149Y-66626966D01*
X26679366Y-66541115D01*
X26681600Y-66523007D01*
X26715677Y-66351693D01*
X26722733Y-66328432D01*
X26788406Y-66169883D01*
X26799865Y-66148444D01*
X26824226Y-66111986D01*
X26896908Y-66003211D01*
X26908132Y-65988828D01*
X26965849Y-65925147D01*
X26970046Y-65920739D01*
X29465739Y-63425046D01*
X29470147Y-63420849D01*
X29533828Y-63363132D01*
X29548211Y-63351908D01*
X29656912Y-63279276D01*
X29656988Y-63279223D01*
X29693447Y-63254863D01*
X29714883Y-63243406D01*
X29873432Y-63177733D01*
X29896693Y-63170677D01*
X30068007Y-63136600D01*
X30086116Y-63134366D01*
X30171968Y-63130149D01*
X30178051Y-63130000D01*
X35010786Y-63130000D01*
X35010786Y-63129999D01*
X55465737Y-42675048D01*
X55470145Y-42670850D01*
X55533829Y-42613131D01*
X55548212Y-42601907D01*
X55638316Y-42541702D01*
X55693448Y-42504864D01*
X55714886Y-42493405D01*
X55873432Y-42427733D01*
X55896693Y-42420677D01*
X56068007Y-42386600D01*
X56086116Y-42384366D01*
X56171968Y-42380149D01*
X56178051Y-42380000D01*
X77121949Y-42380000D01*
X77128033Y-42380149D01*
G37*
G36*
X35760533Y-73792649D02*
G01*
X35846384Y-73796866D01*
X35864492Y-73799100D01*
X36035806Y-73833177D01*
X36059067Y-73840233D01*
X36217616Y-73905906D01*
X36239055Y-73917366D01*
X36275511Y-73941726D01*
X36275512Y-73941726D01*
X36384290Y-74014408D01*
X36398674Y-74025634D01*
X36462353Y-74083350D01*
X36466760Y-74087546D01*
X40629953Y-78250739D01*
X40634149Y-78255146D01*
X40691865Y-78318825D01*
X40703091Y-78333209D01*
X40800136Y-78478450D01*
X40811594Y-78499887D01*
X40877267Y-78658434D01*
X40884323Y-78681696D01*
X40917801Y-78850002D01*
X40920184Y-78874193D01*
X40920184Y-79045806D01*
X40917801Y-79069997D01*
X40884323Y-79238303D01*
X40877267Y-79261565D01*
X40811594Y-79420112D01*
X40800136Y-79441549D01*
X40704794Y-79584241D01*
X40689372Y-79603032D01*
X40568032Y-79724372D01*
X40549241Y-79739794D01*
X40406549Y-79835136D01*
X40385112Y-79846594D01*
X40226565Y-79912267D01*
X40203303Y-79919323D01*
X40034997Y-79952801D01*
X40010806Y-79955184D01*
X39839194Y-79955184D01*
X39815003Y-79952801D01*
X39646696Y-79919323D01*
X39623434Y-79912267D01*
X39464887Y-79846594D01*
X39443450Y-79835136D01*
X39298209Y-79738091D01*
X39283825Y-79726865D01*
X39220146Y-79669149D01*
X39215739Y-79664953D01*
X35343286Y-75792500D01*
X31339383Y-75792500D01*
X31272344Y-75772815D01*
X31260719Y-75764354D01*
X31238536Y-75746149D01*
X31229519Y-75737976D01*
X31099523Y-75607980D01*
X31091350Y-75598962D01*
X31067986Y-75570492D01*
X31060738Y-75560720D01*
X30958597Y-75407856D01*
X30952341Y-75397418D01*
X30934980Y-75364938D01*
X30929777Y-75353938D01*
X30859421Y-75184084D01*
X30855321Y-75172626D01*
X30844631Y-75137385D01*
X30841675Y-75125581D01*
X30805808Y-74945267D01*
X30804022Y-74933230D01*
X30800412Y-74896577D01*
X30799815Y-74884423D01*
X30799815Y-74700576D01*
X30800412Y-74688422D01*
X30804022Y-74651769D01*
X30805808Y-74639732D01*
X30841675Y-74459418D01*
X30844631Y-74447614D01*
X30855321Y-74412373D01*
X30859421Y-74400915D01*
X30929777Y-74231061D01*
X30934980Y-74220061D01*
X30952341Y-74187581D01*
X30958597Y-74177143D01*
X31060738Y-74024279D01*
X31067986Y-74014507D01*
X31091350Y-73986037D01*
X31099523Y-73977019D01*
X31229519Y-73847023D01*
X31238538Y-73838848D01*
X31260721Y-73820644D01*
X31325032Y-73793333D01*
X31339383Y-73792500D01*
X35754449Y-73792500D01*
X35760533Y-73792649D01*
G37*
G36*
X156279077Y-50385412D02*
G01*
X156315730Y-50389022D01*
X156327767Y-50390808D01*
X156508081Y-50426675D01*
X156519885Y-50429631D01*
X156555126Y-50440321D01*
X156566584Y-50444421D01*
X156736438Y-50514777D01*
X156747438Y-50519980D01*
X156779918Y-50537341D01*
X156790356Y-50543597D01*
X156943220Y-50645738D01*
X156952992Y-50652986D01*
X156981462Y-50676350D01*
X156990480Y-50684523D01*
X157120476Y-50814519D01*
X157128649Y-50823536D01*
X157146854Y-50845719D01*
X157174166Y-50910029D01*
X157175000Y-50924383D01*
X157175000Y-65626949D01*
X157174851Y-65633034D01*
X157170633Y-65718885D01*
X157168399Y-65736992D01*
X157134322Y-65908306D01*
X157127266Y-65931567D01*
X157061594Y-66090114D01*
X157050135Y-66111552D01*
X156954794Y-66254239D01*
X156939373Y-66273029D01*
X156818029Y-66394373D01*
X156799239Y-66409794D01*
X156656552Y-66505135D01*
X156635114Y-66516594D01*
X156476567Y-66582266D01*
X156453306Y-66589322D01*
X156284997Y-66622802D01*
X156260805Y-66625185D01*
X156089195Y-66625185D01*
X156065003Y-66622802D01*
X155896693Y-66589322D01*
X155873432Y-66582266D01*
X155714885Y-66516594D01*
X155693447Y-66505135D01*
X155550760Y-66409794D01*
X155531970Y-66394373D01*
X155410626Y-66273029D01*
X155395205Y-66254239D01*
X155299864Y-66111552D01*
X155288405Y-66090114D01*
X155222733Y-65931567D01*
X155215677Y-65908306D01*
X155181600Y-65736992D01*
X155179366Y-65718884D01*
X155175149Y-65633033D01*
X155175000Y-65626949D01*
X155175000Y-50924383D01*
X155194685Y-50857344D01*
X155203144Y-50845721D01*
X155221348Y-50823538D01*
X155229523Y-50814519D01*
X155359519Y-50684523D01*
X155368537Y-50676350D01*
X155397007Y-50652986D01*
X155406779Y-50645738D01*
X155559643Y-50543597D01*
X155570081Y-50537341D01*
X155602561Y-50519980D01*
X155613561Y-50514777D01*
X155783415Y-50444421D01*
X155794873Y-50440321D01*
X155830114Y-50429631D01*
X155841918Y-50426675D01*
X156022232Y-50390808D01*
X156034269Y-50389022D01*
X156070923Y-50385412D01*
X156083077Y-50384815D01*
X156266923Y-50384815D01*
X156279077Y-50385412D01*
G37*
G36*
X43588033Y-67800149D02*
G01*
X43673884Y-67804366D01*
X43691992Y-67806600D01*
X43863306Y-67840677D01*
X43886567Y-67847733D01*
X44045116Y-67913406D01*
X44066555Y-67924866D01*
X44103011Y-67949226D01*
X44103012Y-67949226D01*
X44211790Y-68021908D01*
X44226174Y-68033134D01*
X44289853Y-68090850D01*
X44294260Y-68095046D01*
X47619951Y-71420737D01*
X47624148Y-71425145D01*
X47681865Y-71488826D01*
X47693089Y-71503209D01*
X47742464Y-71577105D01*
X47742465Y-71577105D01*
X47790135Y-71648448D01*
X47801594Y-71669886D01*
X47867266Y-71828432D01*
X47874322Y-71851693D01*
X47908399Y-72023007D01*
X47910633Y-72041114D01*
X47914851Y-72126965D01*
X47915000Y-72133050D01*
X47915000Y-85626949D01*
X47914851Y-85633034D01*
X47910633Y-85718885D01*
X47908399Y-85736992D01*
X47874322Y-85908306D01*
X47867266Y-85931567D01*
X47801594Y-86090114D01*
X47790135Y-86111553D01*
X47753297Y-86166684D01*
X47693093Y-86256787D01*
X47681868Y-86271170D01*
X47624148Y-86334854D01*
X47619951Y-86339262D01*
X41884260Y-92074953D01*
X41879853Y-92079149D01*
X41816174Y-92136865D01*
X41801790Y-92148091D01*
X41656549Y-92245136D01*
X41635112Y-92256594D01*
X41476565Y-92322267D01*
X41453303Y-92329323D01*
X41284997Y-92362801D01*
X41260806Y-92365184D01*
X41089194Y-92365184D01*
X41065003Y-92362801D01*
X40896696Y-92329323D01*
X40873434Y-92322267D01*
X40714887Y-92256594D01*
X40693450Y-92245136D01*
X40550758Y-92149794D01*
X40531967Y-92134372D01*
X40410627Y-92013032D01*
X40395205Y-91994241D01*
X40299863Y-91851549D01*
X40288405Y-91830112D01*
X40222732Y-91671565D01*
X40215675Y-91648302D01*
X40182198Y-91479996D01*
X40179816Y-91455806D01*
X40179816Y-91284193D01*
X40182198Y-91260003D01*
X40215675Y-91091697D01*
X40222732Y-91068434D01*
X40288405Y-90909887D01*
X40299863Y-90888450D01*
X40396908Y-90743209D01*
X40408134Y-90728825D01*
X40465850Y-90665146D01*
X40470046Y-90660739D01*
X45915000Y-85215785D01*
X45915000Y-72544214D01*
X43170786Y-69800000D01*
X39209383Y-69800000D01*
X39142344Y-69780315D01*
X39130719Y-69771854D01*
X39108536Y-69753649D01*
X39099519Y-69745476D01*
X38969523Y-69615480D01*
X38961350Y-69606462D01*
X38937986Y-69577992D01*
X38930738Y-69568220D01*
X38828597Y-69415356D01*
X38822341Y-69404918D01*
X38804980Y-69372438D01*
X38799777Y-69361438D01*
X38729421Y-69191584D01*
X38725321Y-69180126D01*
X38714631Y-69144885D01*
X38711675Y-69133081D01*
X38675808Y-68952767D01*
X38674022Y-68940730D01*
X38670412Y-68904077D01*
X38669815Y-68891923D01*
X38669815Y-68708076D01*
X38670412Y-68695922D01*
X38674022Y-68659269D01*
X38675808Y-68647232D01*
X38711675Y-68466918D01*
X38714631Y-68455114D01*
X38725321Y-68419873D01*
X38729421Y-68408415D01*
X38799777Y-68238561D01*
X38804980Y-68227561D01*
X38822341Y-68195081D01*
X38828597Y-68184643D01*
X38930738Y-68031779D01*
X38937986Y-68022007D01*
X38961350Y-67993537D01*
X38969523Y-67984519D01*
X39099519Y-67854523D01*
X39108538Y-67846348D01*
X39130721Y-67828144D01*
X39195032Y-67800833D01*
X39209383Y-67800000D01*
X43581949Y-67800000D01*
X43588033Y-67800149D01*
G37*
G36*
X93334996Y-46487198D02*
G01*
X93503302Y-46520675D01*
X93526565Y-46527732D01*
X93685113Y-46593405D01*
X93706551Y-46604864D01*
X93849239Y-46700205D01*
X93868029Y-46715626D01*
X93989373Y-46836970D01*
X94004794Y-46855760D01*
X94100135Y-46998448D01*
X94111594Y-47019886D01*
X94177267Y-47178434D01*
X94184323Y-47201696D01*
X94217801Y-47370002D01*
X94220184Y-47394193D01*
X94220184Y-47565806D01*
X94217801Y-47589997D01*
X94184323Y-47758304D01*
X94177267Y-47781566D01*
X94111593Y-47940116D01*
X94100134Y-47961553D01*
X94003093Y-48106786D01*
X93991869Y-48121170D01*
X93934148Y-48184855D01*
X93929951Y-48189262D01*
X89784260Y-52334953D01*
X89779853Y-52339149D01*
X89716174Y-52396865D01*
X89701790Y-52408091D01*
X89593011Y-52480774D01*
X89556552Y-52505135D01*
X89535114Y-52516594D01*
X89376567Y-52582266D01*
X89353306Y-52589322D01*
X89181992Y-52623399D01*
X89163885Y-52625633D01*
X89078034Y-52629851D01*
X89071949Y-52630000D01*
X70928051Y-52630000D01*
X70921966Y-52629851D01*
X70836114Y-52625633D01*
X70818007Y-52623399D01*
X70646693Y-52589322D01*
X70623432Y-52582266D01*
X70464885Y-52516594D01*
X70443447Y-52505135D01*
X70300760Y-52409794D01*
X70281970Y-52394373D01*
X70160626Y-52273029D01*
X70145205Y-52254239D01*
X70049864Y-52111552D01*
X70038405Y-52090114D01*
X69972733Y-51931567D01*
X69965677Y-51908305D01*
X69932198Y-51739995D01*
X69929815Y-51715804D01*
X69929815Y-51544195D01*
X69932198Y-51520004D01*
X69965677Y-51351694D01*
X69972733Y-51328432D01*
X70038405Y-51169885D01*
X70049864Y-51148447D01*
X70145205Y-51005760D01*
X70160626Y-50986970D01*
X70281970Y-50865626D01*
X70300760Y-50850205D01*
X70443447Y-50754864D01*
X70464885Y-50743405D01*
X70623432Y-50677733D01*
X70646693Y-50670677D01*
X70818007Y-50636600D01*
X70836116Y-50634366D01*
X70921968Y-50630149D01*
X70928051Y-50630000D01*
X88660786Y-50630000D01*
X88660786Y-50629999D01*
X92515737Y-46775048D01*
X92520144Y-46770851D01*
X92583829Y-46713130D01*
X92598213Y-46701906D01*
X92743446Y-46604865D01*
X92764883Y-46593406D01*
X92923433Y-46527732D01*
X92946696Y-46520675D01*
X93115004Y-46487198D01*
X93139194Y-46484816D01*
X93310806Y-46484816D01*
X93334996Y-46487198D01*
G37*
G36*
X146754996Y-50637198D02*
G01*
X146923305Y-50670677D01*
X146946567Y-50677733D01*
X147105114Y-50743405D01*
X147126552Y-50754864D01*
X147269239Y-50850205D01*
X147288029Y-50865626D01*
X147409373Y-50986970D01*
X147424794Y-51005760D01*
X147520135Y-51148447D01*
X147531594Y-51169885D01*
X147597266Y-51328432D01*
X147604322Y-51351693D01*
X147638399Y-51523007D01*
X147640633Y-51541114D01*
X147644851Y-51626965D01*
X147645000Y-51633050D01*
X147645000Y-66185786D01*
X156808353Y-75349140D01*
X156812550Y-75353548D01*
X156870267Y-75417229D01*
X156881491Y-75431611D01*
X156978536Y-75576848D01*
X156989995Y-75598286D01*
X157055668Y-75756834D01*
X157062724Y-75780096D01*
X157096799Y-75951406D01*
X157099033Y-75969512D01*
X157103251Y-76055365D01*
X157103400Y-76061450D01*
X157103400Y-139992749D01*
X157103251Y-139998834D01*
X157099033Y-140084685D01*
X157096799Y-140102792D01*
X157062722Y-140274106D01*
X157055666Y-140297367D01*
X156989994Y-140455914D01*
X156978535Y-140477352D01*
X156883194Y-140620039D01*
X156867773Y-140638829D01*
X156746429Y-140760173D01*
X156727639Y-140775594D01*
X156584952Y-140870935D01*
X156563514Y-140882394D01*
X156404967Y-140948066D01*
X156381706Y-140955122D01*
X156210392Y-140989199D01*
X156192285Y-140991433D01*
X156106434Y-140995651D01*
X156100349Y-140995800D01*
X155397783Y-140995800D01*
X155330744Y-140976115D01*
X155319119Y-140967654D01*
X155296936Y-140949449D01*
X155287919Y-140941276D01*
X155157923Y-140811280D01*
X155149750Y-140802262D01*
X155126386Y-140773792D01*
X155119138Y-140764020D01*
X155016997Y-140611156D01*
X155010741Y-140600718D01*
X154993380Y-140568238D01*
X154988177Y-140557238D01*
X154917821Y-140387384D01*
X154913721Y-140375926D01*
X154903031Y-140340685D01*
X154900075Y-140328882D01*
X154863909Y-140147068D01*
X154862458Y-140138054D01*
X154859075Y-140110623D01*
X154858292Y-140101530D01*
X154853775Y-140009586D01*
X154853663Y-140006534D01*
X154853437Y-139997298D01*
X154853400Y-139994265D01*
X154853400Y-139119800D01*
X154873085Y-139052761D01*
X154925889Y-139007006D01*
X154977400Y-138995800D01*
X155103400Y-138995800D01*
X155103400Y-76472613D01*
X155103399Y-76472612D01*
X145940046Y-67309260D01*
X145935850Y-67304853D01*
X145878134Y-67241174D01*
X145866908Y-67226790D01*
X145794226Y-67118012D01*
X145794226Y-67118011D01*
X145769866Y-67081555D01*
X145758406Y-67060116D01*
X145692733Y-66901567D01*
X145685677Y-66878306D01*
X145651600Y-66706992D01*
X145649366Y-66688884D01*
X145645149Y-66603033D01*
X145645000Y-66596949D01*
X145645000Y-51633050D01*
X145645149Y-51626966D01*
X145649366Y-51541115D01*
X145651600Y-51523007D01*
X145685677Y-51351693D01*
X145692733Y-51328432D01*
X145758405Y-51169885D01*
X145769864Y-51148447D01*
X145865205Y-51005760D01*
X145880626Y-50986970D01*
X146001970Y-50865626D01*
X146020760Y-50850205D01*
X146163447Y-50754864D01*
X146184885Y-50743405D01*
X146343432Y-50677733D01*
X146366694Y-50670677D01*
X146535004Y-50637198D01*
X146559195Y-50634815D01*
X146730805Y-50634815D01*
X146754996Y-50637198D01*
G37*
G36*
X61504996Y-50637198D02*
G01*
X61673302Y-50670675D01*
X61696565Y-50677732D01*
X61855112Y-50743405D01*
X61876549Y-50754863D01*
X62019241Y-50850205D01*
X62038032Y-50865627D01*
X62159372Y-50986967D01*
X62174794Y-51005758D01*
X62270136Y-51148450D01*
X62281594Y-51169887D01*
X62347267Y-51328434D01*
X62354323Y-51351696D01*
X62387801Y-51520002D01*
X62390184Y-51544193D01*
X62390184Y-51715806D01*
X62387801Y-51739997D01*
X62354323Y-51908303D01*
X62347267Y-51931565D01*
X62281594Y-52090112D01*
X62270136Y-52111549D01*
X62173091Y-52256790D01*
X62161865Y-52271174D01*
X62104149Y-52334853D01*
X62099953Y-52339260D01*
X53175000Y-61264213D01*
X53175000Y-122715786D01*
X55132107Y-124672893D01*
X69455012Y-138995799D01*
X69455013Y-138995800D01*
X155103400Y-138995800D01*
X155103400Y-138869800D01*
X155123085Y-138802761D01*
X155175889Y-138757006D01*
X155227400Y-138745800D01*
X156101866Y-138745800D01*
X156104900Y-138745837D01*
X156114135Y-138746063D01*
X156117186Y-138746175D01*
X156209130Y-138750692D01*
X156218223Y-138751475D01*
X156245654Y-138754858D01*
X156254668Y-138756309D01*
X156436482Y-138792475D01*
X156448285Y-138795431D01*
X156483526Y-138806121D01*
X156494984Y-138810221D01*
X156664838Y-138880577D01*
X156675838Y-138885780D01*
X156708318Y-138903141D01*
X156718756Y-138909397D01*
X156871620Y-139011538D01*
X156881392Y-139018786D01*
X156909862Y-139042150D01*
X156918880Y-139050323D01*
X157048876Y-139180319D01*
X157057049Y-139189336D01*
X157075254Y-139211519D01*
X157102566Y-139275829D01*
X157103400Y-139290183D01*
X157103400Y-139992749D01*
X157103251Y-139998834D01*
X157099033Y-140084685D01*
X157096799Y-140102792D01*
X157062722Y-140274106D01*
X157055666Y-140297367D01*
X156989994Y-140455914D01*
X156978535Y-140477352D01*
X156883194Y-140620039D01*
X156867773Y-140638829D01*
X156746429Y-140760173D01*
X156727639Y-140775594D01*
X156584952Y-140870935D01*
X156563514Y-140882394D01*
X156404967Y-140948066D01*
X156381706Y-140955122D01*
X156210392Y-140989199D01*
X156192285Y-140991433D01*
X156106434Y-140995651D01*
X156100349Y-140995800D01*
X69043851Y-140995800D01*
X69037766Y-140995651D01*
X68951914Y-140991433D01*
X68933808Y-140989199D01*
X68836032Y-140969750D01*
X68762492Y-140955122D01*
X68739230Y-140948066D01*
X68580686Y-140882395D01*
X68559248Y-140870936D01*
X68414011Y-140773891D01*
X68399629Y-140762667D01*
X68335948Y-140704950D01*
X68331540Y-140700753D01*
X53717893Y-126087107D01*
X40510046Y-112879260D01*
X40505850Y-112874853D01*
X40488873Y-112856122D01*
X40470146Y-112839149D01*
X40465738Y-112834952D01*
X40008947Y-112378161D01*
X39975462Y-112316838D01*
X39973225Y-112302631D01*
X39970413Y-112274073D01*
X39969816Y-112261922D01*
X39969816Y-112078077D01*
X39970413Y-112065924D01*
X39974023Y-112029268D01*
X39975809Y-112017230D01*
X40011674Y-111836922D01*
X40014630Y-111825118D01*
X40025321Y-111789874D01*
X40029421Y-111778416D01*
X40099777Y-111608562D01*
X40104980Y-111597561D01*
X40122339Y-111565085D01*
X40128594Y-111554649D01*
X40230737Y-111401779D01*
X40237984Y-111392007D01*
X40261349Y-111363535D01*
X40269524Y-111354516D01*
X40399516Y-111224524D01*
X40408535Y-111216349D01*
X40437007Y-111192984D01*
X40446779Y-111185737D01*
X40599649Y-111083594D01*
X40610085Y-111077339D01*
X40642561Y-111059980D01*
X40653562Y-111054777D01*
X40823416Y-110984421D01*
X40834874Y-110980321D01*
X40870118Y-110969630D01*
X40881922Y-110966674D01*
X41062230Y-110930809D01*
X41074268Y-110929023D01*
X41110924Y-110925413D01*
X41123077Y-110924816D01*
X41306923Y-110924816D01*
X41319074Y-110925413D01*
X41347631Y-110928225D01*
X41412419Y-110954384D01*
X41423161Y-110963947D01*
X41879952Y-111420738D01*
X41884149Y-111425146D01*
X41901122Y-111443873D01*
X41919853Y-111460850D01*
X41924260Y-111465046D01*
X51174999Y-120715786D01*
X51175000Y-120715785D01*
X51175000Y-60853050D01*
X51175149Y-60846966D01*
X51179366Y-60761115D01*
X51181600Y-60743007D01*
X51215677Y-60571693D01*
X51222733Y-60548432D01*
X51288406Y-60389883D01*
X51299865Y-60368444D01*
X51324226Y-60331986D01*
X51396908Y-60223211D01*
X51408132Y-60208828D01*
X51465849Y-60145147D01*
X51470046Y-60140739D01*
X60685739Y-50925046D01*
X60690146Y-50920850D01*
X60753825Y-50863134D01*
X60768209Y-50851908D01*
X60913450Y-50754863D01*
X60934887Y-50743405D01*
X61093434Y-50677732D01*
X61116697Y-50670675D01*
X61285004Y-50637198D01*
X61309194Y-50634816D01*
X61480806Y-50634816D01*
X61504996Y-50637198D01*
G37*
M02*
