%TF.GenerationSoftware,KiCad,Pcbnew,9.0.4*%
%TF.CreationDate,2026-05-30T17:15:38+07:00*%
%TF.ProjectId,esp32_devkit_v1_battery_cycler,65737033-325f-4646-9576-6b69745f7631,rev?*%
%TF.SameCoordinates,Original*%
%TF.FileFunction,Drillmap*%
%TF.FilePolarity,Positive*%
%FSLAX45Y45*%
G04 Gerber Fmt 4.5, Leading zero omitted, Abs format (unit mm)*
G04 Created by KiCad (PCBNEW 9.0.4) date 2026-05-30 17:15:38*
%MOMM*%
%LPD*%
G01*
G04 APERTURE LIST*
%ADD10C,0.050000*%
%ADD11C,0.200000*%
%ADD12C,0.300000*%
G04 APERTURE END LIST*
D10*
X9542500Y-4863000D02*
X9742500Y-4863000D01*
X2442500Y-7588000D02*
X2442500Y-6313000D01*
X2017500Y-3413000D02*
X27667500Y-3413000D01*
X27667500Y-15588000D01*
X2017500Y-15588000D01*
X2017500Y-3413000D01*
X8942500Y-5313000D02*
X9092500Y-5313000D01*
X11392500Y-4563000D02*
X11392500Y-4963000D01*
X9742500Y-5388000D02*
X8892500Y-5388000D01*
X2767500Y-6313000D02*
X2767500Y-6388000D01*
X8517500Y-5763000D02*
X7892500Y-5763000D01*
X9742500Y-4863000D02*
X9742500Y-5388000D01*
X8892500Y-5388000D02*
X8517500Y-5763000D01*
X9092500Y-5313000D02*
X9542500Y-4863000D01*
X11592500Y-5088000D02*
X11592500Y-4563000D01*
X10592500Y-5763000D02*
X10217500Y-5763000D01*
X10717500Y-5963000D02*
X11592500Y-5088000D01*
X11392500Y-4963000D02*
X10592500Y-5763000D01*
X2592500Y-6563000D02*
X2592500Y-7588000D01*
X10217500Y-5763000D02*
X10217500Y-5963000D01*
X2767500Y-6388000D02*
X2592500Y-6563000D01*
X10217500Y-5963000D02*
X10717500Y-5963000D01*
X7892500Y-5313000D02*
X8942500Y-5313000D01*
X7892500Y-5763000D02*
X7892500Y-5313000D01*
X2442500Y-6313000D02*
X2767500Y-6313000D01*
X11592500Y-4563000D02*
X11392500Y-4563000D01*
X2592500Y-7588000D02*
X2442500Y-7588000D01*
D11*
D12*
X20316500Y-3801250D02*
X20616500Y-4101250D01*
X20616500Y-3801250D02*
X20316500Y-4101250D01*
X20316500Y-8496250D02*
X20616500Y-8796250D01*
X20616500Y-8496250D02*
X20316500Y-8796250D01*
X22767500Y-3801250D02*
X23067500Y-4101250D01*
X23067500Y-3801250D02*
X22767500Y-4101250D01*
X22767500Y-8496250D02*
X23067500Y-8796250D01*
X23067500Y-8496250D02*
X22767500Y-8796250D01*
D11*
X2275777Y-15901984D02*
X2275777Y-15701984D01*
X2275777Y-15701984D02*
X2323396Y-15701984D01*
X2323396Y-15701984D02*
X2351967Y-15711508D01*
X2351967Y-15711508D02*
X2371015Y-15730555D01*
X2371015Y-15730555D02*
X2380539Y-15749603D01*
X2380539Y-15749603D02*
X2390063Y-15787698D01*
X2390063Y-15787698D02*
X2390063Y-15816269D01*
X2390063Y-15816269D02*
X2380539Y-15854365D01*
X2380539Y-15854365D02*
X2371015Y-15873412D01*
X2371015Y-15873412D02*
X2351967Y-15892460D01*
X2351967Y-15892460D02*
X2323396Y-15901984D01*
X2323396Y-15901984D02*
X2275777Y-15901984D01*
X2475777Y-15901984D02*
X2475777Y-15768650D01*
X2475777Y-15806746D02*
X2485301Y-15787698D01*
X2485301Y-15787698D02*
X2494824Y-15778174D01*
X2494824Y-15778174D02*
X2513872Y-15768650D01*
X2513872Y-15768650D02*
X2532920Y-15768650D01*
X2599586Y-15901984D02*
X2599586Y-15768650D01*
X2599586Y-15701984D02*
X2590063Y-15711508D01*
X2590063Y-15711508D02*
X2599586Y-15721031D01*
X2599586Y-15721031D02*
X2609110Y-15711508D01*
X2609110Y-15711508D02*
X2599586Y-15701984D01*
X2599586Y-15701984D02*
X2599586Y-15721031D01*
X2723396Y-15901984D02*
X2704348Y-15892460D01*
X2704348Y-15892460D02*
X2694824Y-15873412D01*
X2694824Y-15873412D02*
X2694824Y-15701984D01*
X2828158Y-15901984D02*
X2809110Y-15892460D01*
X2809110Y-15892460D02*
X2799586Y-15873412D01*
X2799586Y-15873412D02*
X2799586Y-15701984D01*
X3056729Y-15901984D02*
X3056729Y-15701984D01*
X3056729Y-15701984D02*
X3123396Y-15844841D01*
X3123396Y-15844841D02*
X3190062Y-15701984D01*
X3190062Y-15701984D02*
X3190062Y-15901984D01*
X3371015Y-15901984D02*
X3371015Y-15797222D01*
X3371015Y-15797222D02*
X3361491Y-15778174D01*
X3361491Y-15778174D02*
X3342443Y-15768650D01*
X3342443Y-15768650D02*
X3304348Y-15768650D01*
X3304348Y-15768650D02*
X3285301Y-15778174D01*
X3371015Y-15892460D02*
X3351967Y-15901984D01*
X3351967Y-15901984D02*
X3304348Y-15901984D01*
X3304348Y-15901984D02*
X3285301Y-15892460D01*
X3285301Y-15892460D02*
X3275777Y-15873412D01*
X3275777Y-15873412D02*
X3275777Y-15854365D01*
X3275777Y-15854365D02*
X3285301Y-15835317D01*
X3285301Y-15835317D02*
X3304348Y-15825793D01*
X3304348Y-15825793D02*
X3351967Y-15825793D01*
X3351967Y-15825793D02*
X3371015Y-15816269D01*
X3466253Y-15768650D02*
X3466253Y-15968650D01*
X3466253Y-15778174D02*
X3485301Y-15768650D01*
X3485301Y-15768650D02*
X3523396Y-15768650D01*
X3523396Y-15768650D02*
X3542443Y-15778174D01*
X3542443Y-15778174D02*
X3551967Y-15787698D01*
X3551967Y-15787698D02*
X3561491Y-15806746D01*
X3561491Y-15806746D02*
X3561491Y-15863888D01*
X3561491Y-15863888D02*
X3551967Y-15882936D01*
X3551967Y-15882936D02*
X3542443Y-15892460D01*
X3542443Y-15892460D02*
X3523396Y-15901984D01*
X3523396Y-15901984D02*
X3485301Y-15901984D01*
X3485301Y-15901984D02*
X3466253Y-15892460D01*
X3647205Y-15882936D02*
X3656729Y-15892460D01*
X3656729Y-15892460D02*
X3647205Y-15901984D01*
X3647205Y-15901984D02*
X3637682Y-15892460D01*
X3637682Y-15892460D02*
X3647205Y-15882936D01*
X3647205Y-15882936D02*
X3647205Y-15901984D01*
X3647205Y-15778174D02*
X3656729Y-15787698D01*
X3656729Y-15787698D02*
X3647205Y-15797222D01*
X3647205Y-15797222D02*
X3637682Y-15787698D01*
X3637682Y-15787698D02*
X3647205Y-15778174D01*
X3647205Y-15778174D02*
X3647205Y-15797222D01*
X1815000Y-16130500D02*
X2015000Y-16330500D01*
X2015000Y-16130500D02*
X1815000Y-16330500D01*
X2256729Y-16121984D02*
X2380539Y-16121984D01*
X2380539Y-16121984D02*
X2313872Y-16198174D01*
X2313872Y-16198174D02*
X2342444Y-16198174D01*
X2342444Y-16198174D02*
X2361491Y-16207698D01*
X2361491Y-16207698D02*
X2371015Y-16217222D01*
X2371015Y-16217222D02*
X2380539Y-16236269D01*
X2380539Y-16236269D02*
X2380539Y-16283888D01*
X2380539Y-16283888D02*
X2371015Y-16302936D01*
X2371015Y-16302936D02*
X2361491Y-16312460D01*
X2361491Y-16312460D02*
X2342444Y-16321984D01*
X2342444Y-16321984D02*
X2285301Y-16321984D01*
X2285301Y-16321984D02*
X2266253Y-16312460D01*
X2266253Y-16312460D02*
X2256729Y-16302936D01*
X2466253Y-16302936D02*
X2475777Y-16312460D01*
X2475777Y-16312460D02*
X2466253Y-16321984D01*
X2466253Y-16321984D02*
X2456729Y-16312460D01*
X2456729Y-16312460D02*
X2466253Y-16302936D01*
X2466253Y-16302936D02*
X2466253Y-16321984D01*
X2599586Y-16121984D02*
X2618634Y-16121984D01*
X2618634Y-16121984D02*
X2637682Y-16131508D01*
X2637682Y-16131508D02*
X2647205Y-16141031D01*
X2647205Y-16141031D02*
X2656729Y-16160079D01*
X2656729Y-16160079D02*
X2666253Y-16198174D01*
X2666253Y-16198174D02*
X2666253Y-16245793D01*
X2666253Y-16245793D02*
X2656729Y-16283888D01*
X2656729Y-16283888D02*
X2647205Y-16302936D01*
X2647205Y-16302936D02*
X2637682Y-16312460D01*
X2637682Y-16312460D02*
X2618634Y-16321984D01*
X2618634Y-16321984D02*
X2599586Y-16321984D01*
X2599586Y-16321984D02*
X2580539Y-16312460D01*
X2580539Y-16312460D02*
X2571015Y-16302936D01*
X2571015Y-16302936D02*
X2561491Y-16283888D01*
X2561491Y-16283888D02*
X2551967Y-16245793D01*
X2551967Y-16245793D02*
X2551967Y-16198174D01*
X2551967Y-16198174D02*
X2561491Y-16160079D01*
X2561491Y-16160079D02*
X2571015Y-16141031D01*
X2571015Y-16141031D02*
X2580539Y-16131508D01*
X2580539Y-16131508D02*
X2599586Y-16121984D01*
X2790063Y-16121984D02*
X2809110Y-16121984D01*
X2809110Y-16121984D02*
X2828158Y-16131508D01*
X2828158Y-16131508D02*
X2837682Y-16141031D01*
X2837682Y-16141031D02*
X2847205Y-16160079D01*
X2847205Y-16160079D02*
X2856729Y-16198174D01*
X2856729Y-16198174D02*
X2856729Y-16245793D01*
X2856729Y-16245793D02*
X2847205Y-16283888D01*
X2847205Y-16283888D02*
X2837682Y-16302936D01*
X2837682Y-16302936D02*
X2828158Y-16312460D01*
X2828158Y-16312460D02*
X2809110Y-16321984D01*
X2809110Y-16321984D02*
X2790063Y-16321984D01*
X2790063Y-16321984D02*
X2771015Y-16312460D01*
X2771015Y-16312460D02*
X2761491Y-16302936D01*
X2761491Y-16302936D02*
X2751967Y-16283888D01*
X2751967Y-16283888D02*
X2742444Y-16245793D01*
X2742444Y-16245793D02*
X2742444Y-16198174D01*
X2742444Y-16198174D02*
X2751967Y-16160079D01*
X2751967Y-16160079D02*
X2761491Y-16141031D01*
X2761491Y-16141031D02*
X2771015Y-16131508D01*
X2771015Y-16131508D02*
X2790063Y-16121984D01*
X2980539Y-16121984D02*
X2999586Y-16121984D01*
X2999586Y-16121984D02*
X3018634Y-16131508D01*
X3018634Y-16131508D02*
X3028158Y-16141031D01*
X3028158Y-16141031D02*
X3037682Y-16160079D01*
X3037682Y-16160079D02*
X3047205Y-16198174D01*
X3047205Y-16198174D02*
X3047205Y-16245793D01*
X3047205Y-16245793D02*
X3037682Y-16283888D01*
X3037682Y-16283888D02*
X3028158Y-16302936D01*
X3028158Y-16302936D02*
X3018634Y-16312460D01*
X3018634Y-16312460D02*
X2999586Y-16321984D01*
X2999586Y-16321984D02*
X2980539Y-16321984D01*
X2980539Y-16321984D02*
X2961491Y-16312460D01*
X2961491Y-16312460D02*
X2951967Y-16302936D01*
X2951967Y-16302936D02*
X2942443Y-16283888D01*
X2942443Y-16283888D02*
X2932920Y-16245793D01*
X2932920Y-16245793D02*
X2932920Y-16198174D01*
X2932920Y-16198174D02*
X2942443Y-16160079D01*
X2942443Y-16160079D02*
X2951967Y-16141031D01*
X2951967Y-16141031D02*
X2961491Y-16131508D01*
X2961491Y-16131508D02*
X2980539Y-16121984D01*
X3132920Y-16321984D02*
X3132920Y-16188650D01*
X3132920Y-16207698D02*
X3142443Y-16198174D01*
X3142443Y-16198174D02*
X3161491Y-16188650D01*
X3161491Y-16188650D02*
X3190063Y-16188650D01*
X3190063Y-16188650D02*
X3209110Y-16198174D01*
X3209110Y-16198174D02*
X3218634Y-16217222D01*
X3218634Y-16217222D02*
X3218634Y-16321984D01*
X3218634Y-16217222D02*
X3228158Y-16198174D01*
X3228158Y-16198174D02*
X3247205Y-16188650D01*
X3247205Y-16188650D02*
X3275777Y-16188650D01*
X3275777Y-16188650D02*
X3294824Y-16198174D01*
X3294824Y-16198174D02*
X3304348Y-16217222D01*
X3304348Y-16217222D02*
X3304348Y-16321984D01*
X3399586Y-16321984D02*
X3399586Y-16188650D01*
X3399586Y-16207698D02*
X3409110Y-16198174D01*
X3409110Y-16198174D02*
X3428158Y-16188650D01*
X3428158Y-16188650D02*
X3456729Y-16188650D01*
X3456729Y-16188650D02*
X3475777Y-16198174D01*
X3475777Y-16198174D02*
X3485301Y-16217222D01*
X3485301Y-16217222D02*
X3485301Y-16321984D01*
X3485301Y-16217222D02*
X3494824Y-16198174D01*
X3494824Y-16198174D02*
X3513872Y-16188650D01*
X3513872Y-16188650D02*
X3542443Y-16188650D01*
X3542443Y-16188650D02*
X3561491Y-16198174D01*
X3561491Y-16198174D02*
X3571015Y-16217222D01*
X3571015Y-16217222D02*
X3571015Y-16321984D01*
X3961491Y-16112460D02*
X3790063Y-16369603D01*
X4218634Y-16121984D02*
X4237682Y-16121984D01*
X4237682Y-16121984D02*
X4256729Y-16131508D01*
X4256729Y-16131508D02*
X4266253Y-16141031D01*
X4266253Y-16141031D02*
X4275777Y-16160079D01*
X4275777Y-16160079D02*
X4285301Y-16198174D01*
X4285301Y-16198174D02*
X4285301Y-16245793D01*
X4285301Y-16245793D02*
X4275777Y-16283888D01*
X4275777Y-16283888D02*
X4266253Y-16302936D01*
X4266253Y-16302936D02*
X4256729Y-16312460D01*
X4256729Y-16312460D02*
X4237682Y-16321984D01*
X4237682Y-16321984D02*
X4218634Y-16321984D01*
X4218634Y-16321984D02*
X4199587Y-16312460D01*
X4199587Y-16312460D02*
X4190063Y-16302936D01*
X4190063Y-16302936D02*
X4180539Y-16283888D01*
X4180539Y-16283888D02*
X4171015Y-16245793D01*
X4171015Y-16245793D02*
X4171015Y-16198174D01*
X4171015Y-16198174D02*
X4180539Y-16160079D01*
X4180539Y-16160079D02*
X4190063Y-16141031D01*
X4190063Y-16141031D02*
X4199587Y-16131508D01*
X4199587Y-16131508D02*
X4218634Y-16121984D01*
X4371015Y-16302936D02*
X4380539Y-16312460D01*
X4380539Y-16312460D02*
X4371015Y-16321984D01*
X4371015Y-16321984D02*
X4361491Y-16312460D01*
X4361491Y-16312460D02*
X4371015Y-16302936D01*
X4371015Y-16302936D02*
X4371015Y-16321984D01*
X4571015Y-16321984D02*
X4456729Y-16321984D01*
X4513872Y-16321984D02*
X4513872Y-16121984D01*
X4513872Y-16121984D02*
X4494825Y-16150555D01*
X4494825Y-16150555D02*
X4475777Y-16169603D01*
X4475777Y-16169603D02*
X4456729Y-16179127D01*
X4761491Y-16321984D02*
X4647206Y-16321984D01*
X4704348Y-16321984D02*
X4704348Y-16121984D01*
X4704348Y-16121984D02*
X4685301Y-16150555D01*
X4685301Y-16150555D02*
X4666253Y-16169603D01*
X4666253Y-16169603D02*
X4647206Y-16179127D01*
X4875777Y-16207698D02*
X4856729Y-16198174D01*
X4856729Y-16198174D02*
X4847206Y-16188650D01*
X4847206Y-16188650D02*
X4837682Y-16169603D01*
X4837682Y-16169603D02*
X4837682Y-16160079D01*
X4837682Y-16160079D02*
X4847206Y-16141031D01*
X4847206Y-16141031D02*
X4856729Y-16131508D01*
X4856729Y-16131508D02*
X4875777Y-16121984D01*
X4875777Y-16121984D02*
X4913872Y-16121984D01*
X4913872Y-16121984D02*
X4932920Y-16131508D01*
X4932920Y-16131508D02*
X4942444Y-16141031D01*
X4942444Y-16141031D02*
X4951968Y-16160079D01*
X4951968Y-16160079D02*
X4951968Y-16169603D01*
X4951968Y-16169603D02*
X4942444Y-16188650D01*
X4942444Y-16188650D02*
X4932920Y-16198174D01*
X4932920Y-16198174D02*
X4913872Y-16207698D01*
X4913872Y-16207698D02*
X4875777Y-16207698D01*
X4875777Y-16207698D02*
X4856729Y-16217222D01*
X4856729Y-16217222D02*
X4847206Y-16226746D01*
X4847206Y-16226746D02*
X4837682Y-16245793D01*
X4837682Y-16245793D02*
X4837682Y-16283888D01*
X4837682Y-16283888D02*
X4847206Y-16302936D01*
X4847206Y-16302936D02*
X4856729Y-16312460D01*
X4856729Y-16312460D02*
X4875777Y-16321984D01*
X4875777Y-16321984D02*
X4913872Y-16321984D01*
X4913872Y-16321984D02*
X4932920Y-16312460D01*
X4932920Y-16312460D02*
X4942444Y-16302936D01*
X4942444Y-16302936D02*
X4951968Y-16283888D01*
X4951968Y-16283888D02*
X4951968Y-16245793D01*
X4951968Y-16245793D02*
X4942444Y-16226746D01*
X4942444Y-16226746D02*
X4932920Y-16217222D01*
X4932920Y-16217222D02*
X4913872Y-16207698D01*
X5142444Y-16321984D02*
X5028158Y-16321984D01*
X5085301Y-16321984D02*
X5085301Y-16121984D01*
X5085301Y-16121984D02*
X5066253Y-16150555D01*
X5066253Y-16150555D02*
X5047206Y-16169603D01*
X5047206Y-16169603D02*
X5028158Y-16179127D01*
X5218634Y-16121984D02*
X5218634Y-16160079D01*
X5294825Y-16121984D02*
X5294825Y-16160079D01*
X5590063Y-16398174D02*
X5580539Y-16388650D01*
X5580539Y-16388650D02*
X5561491Y-16360079D01*
X5561491Y-16360079D02*
X5551968Y-16341031D01*
X5551968Y-16341031D02*
X5542444Y-16312460D01*
X5542444Y-16312460D02*
X5532920Y-16264841D01*
X5532920Y-16264841D02*
X5532920Y-16226746D01*
X5532920Y-16226746D02*
X5542444Y-16179127D01*
X5542444Y-16179127D02*
X5551968Y-16150555D01*
X5551968Y-16150555D02*
X5561491Y-16131508D01*
X5561491Y-16131508D02*
X5580539Y-16102936D01*
X5580539Y-16102936D02*
X5590063Y-16093412D01*
X5751968Y-16188650D02*
X5751968Y-16321984D01*
X5704348Y-16112460D02*
X5656729Y-16255317D01*
X5656729Y-16255317D02*
X5780539Y-16255317D01*
X6009110Y-16321984D02*
X6009110Y-16121984D01*
X6094825Y-16321984D02*
X6094825Y-16217222D01*
X6094825Y-16217222D02*
X6085301Y-16198174D01*
X6085301Y-16198174D02*
X6066253Y-16188650D01*
X6066253Y-16188650D02*
X6037682Y-16188650D01*
X6037682Y-16188650D02*
X6018634Y-16198174D01*
X6018634Y-16198174D02*
X6009110Y-16207698D01*
X6218634Y-16321984D02*
X6199587Y-16312460D01*
X6199587Y-16312460D02*
X6190063Y-16302936D01*
X6190063Y-16302936D02*
X6180539Y-16283888D01*
X6180539Y-16283888D02*
X6180539Y-16226746D01*
X6180539Y-16226746D02*
X6190063Y-16207698D01*
X6190063Y-16207698D02*
X6199587Y-16198174D01*
X6199587Y-16198174D02*
X6218634Y-16188650D01*
X6218634Y-16188650D02*
X6247206Y-16188650D01*
X6247206Y-16188650D02*
X6266253Y-16198174D01*
X6266253Y-16198174D02*
X6275777Y-16207698D01*
X6275777Y-16207698D02*
X6285301Y-16226746D01*
X6285301Y-16226746D02*
X6285301Y-16283888D01*
X6285301Y-16283888D02*
X6275777Y-16302936D01*
X6275777Y-16302936D02*
X6266253Y-16312460D01*
X6266253Y-16312460D02*
X6247206Y-16321984D01*
X6247206Y-16321984D02*
X6218634Y-16321984D01*
X6399587Y-16321984D02*
X6380539Y-16312460D01*
X6380539Y-16312460D02*
X6371015Y-16293412D01*
X6371015Y-16293412D02*
X6371015Y-16121984D01*
X6551968Y-16312460D02*
X6532920Y-16321984D01*
X6532920Y-16321984D02*
X6494825Y-16321984D01*
X6494825Y-16321984D02*
X6475777Y-16312460D01*
X6475777Y-16312460D02*
X6466253Y-16293412D01*
X6466253Y-16293412D02*
X6466253Y-16217222D01*
X6466253Y-16217222D02*
X6475777Y-16198174D01*
X6475777Y-16198174D02*
X6494825Y-16188650D01*
X6494825Y-16188650D02*
X6532920Y-16188650D01*
X6532920Y-16188650D02*
X6551968Y-16198174D01*
X6551968Y-16198174D02*
X6561491Y-16217222D01*
X6561491Y-16217222D02*
X6561491Y-16236269D01*
X6561491Y-16236269D02*
X6466253Y-16255317D01*
X6637682Y-16312460D02*
X6656730Y-16321984D01*
X6656730Y-16321984D02*
X6694825Y-16321984D01*
X6694825Y-16321984D02*
X6713872Y-16312460D01*
X6713872Y-16312460D02*
X6723396Y-16293412D01*
X6723396Y-16293412D02*
X6723396Y-16283888D01*
X6723396Y-16283888D02*
X6713872Y-16264841D01*
X6713872Y-16264841D02*
X6694825Y-16255317D01*
X6694825Y-16255317D02*
X6666253Y-16255317D01*
X6666253Y-16255317D02*
X6647206Y-16245793D01*
X6647206Y-16245793D02*
X6637682Y-16226746D01*
X6637682Y-16226746D02*
X6637682Y-16217222D01*
X6637682Y-16217222D02*
X6647206Y-16198174D01*
X6647206Y-16198174D02*
X6666253Y-16188650D01*
X6666253Y-16188650D02*
X6694825Y-16188650D01*
X6694825Y-16188650D02*
X6713872Y-16198174D01*
X6790063Y-16398174D02*
X6799587Y-16388650D01*
X6799587Y-16388650D02*
X6818634Y-16360079D01*
X6818634Y-16360079D02*
X6828158Y-16341031D01*
X6828158Y-16341031D02*
X6837682Y-16312460D01*
X6837682Y-16312460D02*
X6847206Y-16264841D01*
X6847206Y-16264841D02*
X6847206Y-16226746D01*
X6847206Y-16226746D02*
X6837682Y-16179127D01*
X6837682Y-16179127D02*
X6828158Y-16150555D01*
X6828158Y-16150555D02*
X6818634Y-16131508D01*
X6818634Y-16131508D02*
X6799587Y-16102936D01*
X6799587Y-16102936D02*
X6790063Y-16093412D01*
X7151968Y-16398174D02*
X7142444Y-16388650D01*
X7142444Y-16388650D02*
X7123396Y-16360079D01*
X7123396Y-16360079D02*
X7113872Y-16341031D01*
X7113872Y-16341031D02*
X7104349Y-16312460D01*
X7104349Y-16312460D02*
X7094825Y-16264841D01*
X7094825Y-16264841D02*
X7094825Y-16226746D01*
X7094825Y-16226746D02*
X7104349Y-16179127D01*
X7104349Y-16179127D02*
X7113872Y-16150555D01*
X7113872Y-16150555D02*
X7123396Y-16131508D01*
X7123396Y-16131508D02*
X7142444Y-16102936D01*
X7142444Y-16102936D02*
X7151968Y-16093412D01*
X7228158Y-16188650D02*
X7228158Y-16321984D01*
X7228158Y-16207698D02*
X7237682Y-16198174D01*
X7237682Y-16198174D02*
X7256730Y-16188650D01*
X7256730Y-16188650D02*
X7285301Y-16188650D01*
X7285301Y-16188650D02*
X7304349Y-16198174D01*
X7304349Y-16198174D02*
X7313872Y-16217222D01*
X7313872Y-16217222D02*
X7313872Y-16321984D01*
X7437682Y-16321984D02*
X7418634Y-16312460D01*
X7418634Y-16312460D02*
X7409111Y-16302936D01*
X7409111Y-16302936D02*
X7399587Y-16283888D01*
X7399587Y-16283888D02*
X7399587Y-16226746D01*
X7399587Y-16226746D02*
X7409111Y-16207698D01*
X7409111Y-16207698D02*
X7418634Y-16198174D01*
X7418634Y-16198174D02*
X7437682Y-16188650D01*
X7437682Y-16188650D02*
X7466253Y-16188650D01*
X7466253Y-16188650D02*
X7485301Y-16198174D01*
X7485301Y-16198174D02*
X7494825Y-16207698D01*
X7494825Y-16207698D02*
X7504349Y-16226746D01*
X7504349Y-16226746D02*
X7504349Y-16283888D01*
X7504349Y-16283888D02*
X7494825Y-16302936D01*
X7494825Y-16302936D02*
X7485301Y-16312460D01*
X7485301Y-16312460D02*
X7466253Y-16321984D01*
X7466253Y-16321984D02*
X7437682Y-16321984D01*
X7561492Y-16188650D02*
X7637682Y-16188650D01*
X7590063Y-16121984D02*
X7590063Y-16293412D01*
X7590063Y-16293412D02*
X7599587Y-16312460D01*
X7599587Y-16312460D02*
X7618634Y-16321984D01*
X7618634Y-16321984D02*
X7637682Y-16321984D01*
X7856730Y-16188650D02*
X7856730Y-16388650D01*
X7856730Y-16198174D02*
X7875777Y-16188650D01*
X7875777Y-16188650D02*
X7913873Y-16188650D01*
X7913873Y-16188650D02*
X7932920Y-16198174D01*
X7932920Y-16198174D02*
X7942444Y-16207698D01*
X7942444Y-16207698D02*
X7951968Y-16226746D01*
X7951968Y-16226746D02*
X7951968Y-16283888D01*
X7951968Y-16283888D02*
X7942444Y-16302936D01*
X7942444Y-16302936D02*
X7932920Y-16312460D01*
X7932920Y-16312460D02*
X7913873Y-16321984D01*
X7913873Y-16321984D02*
X7875777Y-16321984D01*
X7875777Y-16321984D02*
X7856730Y-16312460D01*
X8066253Y-16321984D02*
X8047206Y-16312460D01*
X8047206Y-16312460D02*
X8037682Y-16293412D01*
X8037682Y-16293412D02*
X8037682Y-16121984D01*
X8228158Y-16321984D02*
X8228158Y-16217222D01*
X8228158Y-16217222D02*
X8218634Y-16198174D01*
X8218634Y-16198174D02*
X8199587Y-16188650D01*
X8199587Y-16188650D02*
X8161492Y-16188650D01*
X8161492Y-16188650D02*
X8142444Y-16198174D01*
X8228158Y-16312460D02*
X8209111Y-16321984D01*
X8209111Y-16321984D02*
X8161492Y-16321984D01*
X8161492Y-16321984D02*
X8142444Y-16312460D01*
X8142444Y-16312460D02*
X8132920Y-16293412D01*
X8132920Y-16293412D02*
X8132920Y-16274365D01*
X8132920Y-16274365D02*
X8142444Y-16255317D01*
X8142444Y-16255317D02*
X8161492Y-16245793D01*
X8161492Y-16245793D02*
X8209111Y-16245793D01*
X8209111Y-16245793D02*
X8228158Y-16236269D01*
X8294825Y-16188650D02*
X8371015Y-16188650D01*
X8323396Y-16121984D02*
X8323396Y-16293412D01*
X8323396Y-16293412D02*
X8332920Y-16312460D01*
X8332920Y-16312460D02*
X8351968Y-16321984D01*
X8351968Y-16321984D02*
X8371015Y-16321984D01*
X8513873Y-16312460D02*
X8494825Y-16321984D01*
X8494825Y-16321984D02*
X8456730Y-16321984D01*
X8456730Y-16321984D02*
X8437682Y-16312460D01*
X8437682Y-16312460D02*
X8428158Y-16293412D01*
X8428158Y-16293412D02*
X8428158Y-16217222D01*
X8428158Y-16217222D02*
X8437682Y-16198174D01*
X8437682Y-16198174D02*
X8456730Y-16188650D01*
X8456730Y-16188650D02*
X8494825Y-16188650D01*
X8494825Y-16188650D02*
X8513873Y-16198174D01*
X8513873Y-16198174D02*
X8523396Y-16217222D01*
X8523396Y-16217222D02*
X8523396Y-16236269D01*
X8523396Y-16236269D02*
X8428158Y-16255317D01*
X8694825Y-16321984D02*
X8694825Y-16121984D01*
X8694825Y-16312460D02*
X8675777Y-16321984D01*
X8675777Y-16321984D02*
X8637682Y-16321984D01*
X8637682Y-16321984D02*
X8618635Y-16312460D01*
X8618635Y-16312460D02*
X8609111Y-16302936D01*
X8609111Y-16302936D02*
X8599587Y-16283888D01*
X8599587Y-16283888D02*
X8599587Y-16226746D01*
X8599587Y-16226746D02*
X8609111Y-16207698D01*
X8609111Y-16207698D02*
X8618635Y-16198174D01*
X8618635Y-16198174D02*
X8637682Y-16188650D01*
X8637682Y-16188650D02*
X8675777Y-16188650D01*
X8675777Y-16188650D02*
X8694825Y-16198174D01*
X8771016Y-16398174D02*
X8780539Y-16388650D01*
X8780539Y-16388650D02*
X8799587Y-16360079D01*
X8799587Y-16360079D02*
X8809111Y-16341031D01*
X8809111Y-16341031D02*
X8818635Y-16312460D01*
X8818635Y-16312460D02*
X8828158Y-16264841D01*
X8828158Y-16264841D02*
X8828158Y-16226746D01*
X8828158Y-16226746D02*
X8818635Y-16179127D01*
X8818635Y-16179127D02*
X8809111Y-16150555D01*
X8809111Y-16150555D02*
X8799587Y-16131508D01*
X8799587Y-16131508D02*
X8780539Y-16102936D01*
X8780539Y-16102936D02*
X8771016Y-16093412D01*
M02*
