%TF.GenerationSoftware,KiCad,Pcbnew,9.0.4*%
%TF.CreationDate,2026-05-30T17:15:33+07:00*%
%TF.ProjectId,esp32_devkit_v1_battery_cycler,65737033-325f-4646-9576-6b69745f7631,rev?*%
%TF.SameCoordinates,Original*%
%TF.FileFunction,Soldermask,Top*%
%TF.FilePolarity,Negative*%
%FSLAX46Y46*%
G04 Gerber Fmt 4.6, Leading zero omitted, Abs format (unit mm)*
G04 Created by KiCad (PCBNEW 9.0.4) date 2026-05-30 17:15:33*
%MOMM*%
%LPD*%
G01*
G04 APERTURE LIST*
G04 Aperture macros list*
%AMRoundRect*
0 Rectangle with rounded corners*
0 $1 Rounding radius*
0 $2 $3 $4 $5 $6 $7 $8 $9 X,Y pos of 4 corners*
0 Add a 4 corners polygon primitive as box body*
4,1,4,$2,$3,$4,$5,$6,$7,$8,$9,$2,$3,0*
0 Add four circle primitives for the rounded corners*
1,1,$1+$1,$2,$3*
1,1,$1+$1,$4,$5*
1,1,$1+$1,$6,$7*
1,1,$1+$1,$8,$9*
0 Add four rect primitives between the rounded corners*
20,1,$1+$1,$2,$3,$4,$5,0*
20,1,$1+$1,$4,$5,$6,$7,0*
20,1,$1+$1,$6,$7,$8,$9,0*
20,1,$1+$1,$8,$9,$2,$3,0*%
G04 Aperture macros list end*
%ADD10R,1.700000X1.700000*%
%ADD11C,1.700000*%
%ADD12R,1.500000X1.050000*%
%ADD13O,1.500000X1.050000*%
%ADD14C,2.000000*%
%ADD15RoundRect,0.102000X1.500000X1.500000X-1.500000X1.500000X-1.500000X-1.500000X1.500000X-1.500000X0*%
%ADD16C,3.204000*%
%ADD17RoundRect,0.250000X-0.550000X-0.550000X0.550000X-0.550000X0.550000X0.550000X-0.550000X0.550000X0*%
%ADD18C,1.600000*%
%ADD19C,3.000000*%
%ADD20C,2.500000*%
%ADD21RoundRect,0.102000X0.997500X-0.997500X0.997500X0.997500X-0.997500X0.997500X-0.997500X-0.997500X0*%
%ADD22C,2.199000*%
%ADD23R,1.800000X1.800000*%
%ADD24C,1.800000*%
%ADD25RoundRect,0.249999X0.850001X-0.850001X0.850001X0.850001X-0.850001X0.850001X-0.850001X-0.850001X0*%
%ADD26C,2.200000*%
%ADD27R,1.560000X1.560000*%
%ADD28C,1.560000*%
%ADD29RoundRect,0.250000X0.550000X-0.550000X0.550000X0.550000X-0.550000X0.550000X-0.550000X-0.550000X0*%
%ADD30RoundRect,0.675000X0.675000X-0.675000X0.675000X0.675000X-0.675000X0.675000X-0.675000X-0.675000X0*%
%ADD31C,2.700000*%
%ADD32RoundRect,0.102000X-1.000000X-1.000000X1.000000X-1.000000X1.000000X1.000000X-1.000000X1.000000X0*%
%ADD33C,2.204000*%
%ADD34RoundRect,0.250000X0.550000X0.550000X-0.550000X0.550000X-0.550000X-0.550000X0.550000X-0.550000X0*%
%ADD35RoundRect,0.249999X-1.250001X1.250001X-1.250001X-1.250001X1.250001X-1.250001X1.250001X1.250001X0*%
%ADD36C,2.400000*%
%ADD37RoundRect,0.250001X0.949999X0.949999X-0.949999X0.949999X-0.949999X-0.949999X0.949999X-0.949999X0*%
%ADD38R,3.500000X3.500000*%
%ADD39RoundRect,0.750000X0.750000X1.000000X-0.750000X1.000000X-0.750000X-1.000000X0.750000X-1.000000X0*%
%ADD40RoundRect,0.875000X0.875000X0.875000X-0.875000X0.875000X-0.875000X-0.875000X0.875000X-0.875000X0*%
%ADD41R,2.540000X2.540000*%
%ADD42C,2.540000*%
G04 APERTURE END LIST*
D10*
%TO.C,J9*%
X243540000Y-39250000D03*
D11*
X241000000Y-39250000D03*
%TD*%
D10*
%TO.C,J7*%
X60675000Y-100630000D03*
%TD*%
D12*
%TO.C,Q2*%
X93315000Y-68360000D03*
D13*
X93315000Y-69630000D03*
X93315000Y-70900000D03*
%TD*%
D14*
%TO.C,TP2*%
X172675000Y-140130000D03*
%TD*%
D15*
%TO.C,J13*%
X47925000Y-51630000D03*
D16*
X38395000Y-51630000D03*
%TD*%
D17*
%TO.C,C3*%
X58022349Y-108130000D03*
D18*
X63022349Y-108130000D03*
%TD*%
D12*
%TO.C,Q1*%
X111815000Y-68360000D03*
D13*
X111815000Y-69630000D03*
X111815000Y-70900000D03*
%TD*%
D14*
%TO.C,TP4*%
X190175000Y-79630000D03*
%TD*%
D19*
%TO.C,K2*%
X87175000Y-61630000D03*
D20*
X93225000Y-59680000D03*
D19*
X93225000Y-47480000D03*
X81175000Y-47430000D03*
D20*
X81225000Y-59680000D03*
%TD*%
D18*
%TO.C,R11*%
X59365000Y-73550000D03*
X59365000Y-83710000D03*
%TD*%
D21*
%TO.C,Q3*%
X32045000Y-77332500D03*
D22*
X32045000Y-74792500D03*
X32045000Y-72252500D03*
%TD*%
D10*
%TO.C,J14*%
X195075000Y-48240000D03*
D11*
X195075000Y-45700000D03*
X195075000Y-43160000D03*
X195075000Y-40620000D03*
%TD*%
D23*
%TO.C,D7*%
X89900000Y-91630000D03*
D24*
X92440000Y-91630000D03*
%TD*%
D10*
%TO.C,J2*%
X234275000Y-82690000D03*
D11*
X234275000Y-80150000D03*
X234275000Y-77610000D03*
X234275000Y-75070000D03*
X234275000Y-72530000D03*
X234275000Y-69990000D03*
X234275000Y-67450000D03*
X234275000Y-64910000D03*
X234275000Y-62370000D03*
X234275000Y-59830000D03*
X234275000Y-57290000D03*
X234275000Y-54750000D03*
X234275000Y-52210000D03*
X234275000Y-49670000D03*
X234275000Y-47130000D03*
%TD*%
D14*
%TO.C,TP9*%
X258175000Y-145130000D03*
%TD*%
D10*
%TO.C,J6*%
X116175000Y-88355000D03*
D11*
X116175000Y-90895000D03*
%TD*%
D17*
%TO.C,D9*%
X99865000Y-68130000D03*
D18*
X107485000Y-68130000D03*
%TD*%
%TO.C,R10*%
X65175000Y-83710000D03*
X65175000Y-73550000D03*
%TD*%
%TO.C,R5*%
X84675000Y-88210000D03*
X84675000Y-78050000D03*
%TD*%
D14*
%TO.C,TP10*%
X255425000Y-148630000D03*
%TD*%
D25*
%TO.C,D10*%
X39925000Y-78960000D03*
D26*
X39925000Y-68800000D03*
%TD*%
D10*
%TO.C,J5*%
X267885000Y-148810000D03*
D11*
X265345000Y-148810000D03*
X262805000Y-148810000D03*
X260265000Y-148810000D03*
%TD*%
D10*
%TO.C,J11*%
X224295000Y-135730000D03*
D11*
X221755000Y-135730000D03*
X219215000Y-135730000D03*
X216675000Y-135730000D03*
X214135000Y-135730000D03*
X211595000Y-135730000D03*
%TD*%
D10*
%TO.C,J10*%
X240885000Y-97230000D03*
D11*
X238345000Y-97230000D03*
X235805000Y-97230000D03*
X233265000Y-97230000D03*
%TD*%
D18*
%TO.C,R2*%
X180675000Y-68280000D03*
X180675000Y-80980000D03*
%TD*%
D17*
%TO.C,D8*%
X81365000Y-68130000D03*
D18*
X88985000Y-68130000D03*
%TD*%
%TO.C,C5*%
X123925000Y-86130000D03*
X121425000Y-86130000D03*
%TD*%
D27*
%TO.C,RV1*%
X177175000Y-86390000D03*
D28*
X179675000Y-91390000D03*
X182175000Y-86390000D03*
%TD*%
D14*
%TO.C,TP1*%
X166675000Y-57130000D03*
%TD*%
D10*
%TO.C,J15*%
X225475000Y-122230000D03*
D11*
X222935000Y-122230000D03*
X220395000Y-122230000D03*
X217855000Y-122230000D03*
X215315000Y-122230000D03*
%TD*%
D14*
%TO.C,TP8*%
X262925000Y-145130000D03*
%TD*%
D15*
%TO.C,J8*%
X156175000Y-51630000D03*
D16*
X146645000Y-51630000D03*
%TD*%
D29*
%TO.C,U3*%
X108135000Y-85630000D03*
D18*
X110675000Y-85630000D03*
X110675000Y-78010000D03*
X108135000Y-78010000D03*
%TD*%
D19*
%TO.C,K1*%
X105675000Y-61630000D03*
D20*
X111725000Y-59680000D03*
D19*
X111725000Y-47480000D03*
X99675000Y-47430000D03*
D20*
X99725000Y-59680000D03*
%TD*%
D29*
%TO.C,C2*%
X254075000Y-92012651D03*
D18*
X254075000Y-87012651D03*
%TD*%
%TO.C,R1*%
X173175000Y-80980000D03*
X173175000Y-68280000D03*
%TD*%
D14*
%TO.C,TP3*%
X187175000Y-69130000D03*
%TD*%
D30*
%TO.C,F1*%
X41175000Y-112170000D03*
X41175000Y-105410000D03*
D31*
X41175000Y-98130000D03*
X41175000Y-91370000D03*
%TD*%
D18*
%TO.C,C6*%
X186675000Y-73630000D03*
X186675000Y-76130000D03*
%TD*%
D19*
%TO.C,U1*%
X204665000Y-39512500D03*
X204665000Y-86462500D03*
X229175000Y-39512500D03*
X229175000Y-86462500D03*
D32*
X204245000Y-47472500D03*
D33*
X204245000Y-50012500D03*
X204245000Y-52552500D03*
X204245000Y-55092500D03*
X204245000Y-57632500D03*
X204245000Y-60172500D03*
X204245000Y-62712500D03*
X204245000Y-65252500D03*
X204245000Y-67792500D03*
X204245000Y-70332500D03*
X204245000Y-72872500D03*
X204245000Y-75412500D03*
X204245000Y-77952500D03*
X204245000Y-80492500D03*
X204245000Y-83032500D03*
X229645000Y-83032500D03*
X229645000Y-80492500D03*
X229645000Y-77952500D03*
X229645000Y-75412500D03*
X229645000Y-72872500D03*
X229645000Y-70332500D03*
X229645000Y-67792500D03*
X229645000Y-65252500D03*
X229645000Y-62712500D03*
X229645000Y-60172500D03*
X229645000Y-57632500D03*
X229645000Y-55092500D03*
X229645000Y-52552500D03*
X229645000Y-50012500D03*
X229645000Y-47472500D03*
%TD*%
D34*
%TO.C,C4*%
X64577651Y-67630000D03*
D18*
X59577651Y-67630000D03*
%TD*%
D10*
%TO.C,ADS1*%
X189925000Y-63480000D03*
D11*
X189925000Y-60940000D03*
X189925000Y-58400000D03*
X189925000Y-55860000D03*
X189925000Y-53320000D03*
X189925000Y-50780000D03*
X189925000Y-48240000D03*
X189925000Y-45700000D03*
X189925000Y-43160000D03*
X189925000Y-40620000D03*
%TD*%
D35*
%TO.C,BT1*%
X156175000Y-65630000D03*
D19*
X156103400Y-139995800D03*
%TD*%
D18*
%TO.C,R3*%
X102675000Y-88210000D03*
X102675000Y-78050000D03*
%TD*%
D14*
%TO.C,TP7*%
X270425000Y-145630000D03*
%TD*%
D10*
%TO.C,INA1*%
X121250000Y-80000000D03*
D11*
X123790000Y-80000000D03*
X126330000Y-80000000D03*
X128870000Y-80000000D03*
X131410000Y-80000000D03*
X133950000Y-80000000D03*
D36*
X126000000Y-64250000D03*
D37*
X129500000Y-64250000D03*
%TD*%
D15*
%TO.C,J12*%
X70925000Y-51630000D03*
D16*
X61395000Y-51630000D03*
%TD*%
D18*
%TO.C,R6*%
X79095000Y-73130000D03*
X89255000Y-73130000D03*
%TD*%
D23*
%TO.C,D6*%
X107900000Y-91630000D03*
D24*
X110440000Y-91630000D03*
%TD*%
D38*
%TO.C,J4*%
X262475000Y-90067500D03*
D39*
X268475000Y-90067500D03*
D40*
X265475000Y-85367500D03*
%TD*%
D18*
%TO.C,R4*%
X97595000Y-73130000D03*
X107755000Y-73130000D03*
%TD*%
D29*
%TO.C,U4*%
X90135000Y-85630000D03*
D18*
X92675000Y-85630000D03*
X92675000Y-78010000D03*
X90135000Y-78010000D03*
%TD*%
D10*
%TO.C,J1*%
X172675000Y-90170000D03*
D11*
X172675000Y-87630000D03*
%TD*%
D14*
%TO.C,TP5*%
X174175000Y-84130000D03*
%TD*%
D41*
%TO.C,M1*%
X254885000Y-80130000D03*
D42*
X272665000Y-80130000D03*
X254885000Y-39490000D03*
X272665000Y-39490000D03*
%TD*%
D14*
%TO.C,TP6*%
X185175000Y-83630000D03*
%TD*%
D10*
%TO.C,J3*%
X199575000Y-82690000D03*
D11*
X199575000Y-80150000D03*
X199575000Y-77610000D03*
X199575000Y-75070000D03*
X199575000Y-72530000D03*
X199575000Y-69990000D03*
X199575000Y-67450000D03*
X199575000Y-64910000D03*
X199575000Y-62370000D03*
X199575000Y-59830000D03*
X199575000Y-57290000D03*
X199575000Y-54750000D03*
X199575000Y-52210000D03*
X199575000Y-49670000D03*
X199575000Y-47130000D03*
%TD*%
D29*
%TO.C,U2*%
X58055000Y-96250000D03*
D18*
X60595000Y-96250000D03*
X63135000Y-96250000D03*
X65675000Y-96250000D03*
X65675000Y-88630000D03*
X63135000Y-88630000D03*
X60595000Y-88630000D03*
X58055000Y-88630000D03*
%TD*%
%TO.C,C1*%
X186675000Y-87380000D03*
X186675000Y-89880000D03*
%TD*%
D41*
%TO.C,M2*%
X272665000Y-99410000D03*
D42*
X254885000Y-99410000D03*
X272665000Y-140050000D03*
X254885000Y-140050000D03*
%TD*%
M02*
